<?xml version="1.0" encoding="UTF-8" standalone="no"?>
<svg
   xmlns:dc="http://purl.org/dc/elements/1.1/"
   xmlns:cc="http://creativecommons.org/ns#"
   xmlns:rdf="http://www.w3.org/1999/02/22-rdf-syntax-ns#"
   xmlns:svg="http://www.w3.org/2000/svg"
   xmlns="http://www.w3.org/2000/svg"
   xmlns:sodipodi="http://sodipodi.sourceforge.net/DTD/sodipodi-0.dtd"
   xmlns:inkscape="http://www.inkscape.org/namespaces/inkscape"
   version="1.1"
   id="svg2"
   xml:space="preserve"
   width="840.86371"
   height="559.25836"
   viewBox="0 0 840.86371 559.25836"
   sodipodi:docname="architecture.svg"
   inkscape:version="1.0.2 (1.0.2+r75+1)"><sodipodi:namedview
     pagecolor="#ffffff"
     bordercolor="#666666"
     borderopacity="1"
     objecttolerance="10"
     gridtolerance="10"
     guidetolerance="10"
     inkscape:pageopacity="1"
     inkscape:pageshadow="2"
     inkscape:window-width="1920"
     inkscape:window-height="1145"
     id="namedview177"
     showgrid="false"
     inkscape:pagecheckerboard="true"
     showborder="true"
     borderlayer="false"
     inkscape:zoom="1.3017239"
     inkscape:cx="471.90206"
     inkscape:cy="279.62918"
     inkscape:window-x="0"
     inkscape:window-y="27"
     inkscape:window-maximized="1"
     inkscape:current-layer="g296"
     inkscape:document-rotation="0" /><metadata
     id="metadata8"><rdf:RDF><cc:Work
         rdf:about=""><dc:format>image/svg+xml</dc:format><dc:type
           rdf:resource="http://purl.org/dc/dcmitype/StillImage" /><dc:title /></cc:Work></rdf:RDF></metadata><defs
     id="defs6"><clipPath
       clipPathUnits="userSpaceOnUse"
       id="clipPath168"><path
         d="m 0,296 h 630.648 v 4 H 0 Z"
         id="path166" /></clipPath><clipPath
       clipPathUnits="userSpaceOnUse"
       id="clipPath178"><path
         d="M 0,0 H 631 V 420 H 0 Z"
         id="path176" /></clipPath><clipPath
       clipPathUnits="userSpaceOnUse"
       id="clipPath302"><path
         d="m 159,324 h 248 v 95.445 H 159 Z"
         id="path300" /></clipPath><clipPath
       clipPathUnits="userSpaceOnUse"
       id="clipPath312"><path
         d="M 0,0 H 631 V 420 H 0 Z"
         id="path310" /></clipPath></defs><rect
     style="display:inline;fill:#ffffff;fill-opacity:1;stroke:#000000;stroke-width:1.333;stroke-miterlimit:4;stroke-dasharray:none;stroke-opacity:1"
     id="rect1005"
     width="841.63385"
     height="561.62494"
     x="0.42276514"
     y="0.54969078"
     inkscape:highlight-color="4294967295" /><g
     id="g10"
     transform="matrix(1.3333333,0,0,1.3333333,2,2.0000126)"
     style="stroke-width:0.99975;stroke-miterlimit:4;stroke-dasharray:none"
     inkscape:highlight-color="4294967295"><g
       id="g12"
       style="stroke-width:0.99975;stroke-miterlimit:4;stroke-dasharray:none"><g
         id="g14"
         style="stroke-width:0.99975;stroke-miterlimit:4;stroke-dasharray:none"><path
           d="M 491.039,327.613 H 605.5 c 5.203,0 9.395,4.192 9.395,9.399 v 37.59 c 0,5.207 -4.192,9.398 -9.395,9.398 H 491.039 c -5.203,0 -9.394,-4.191 -9.394,-9.398 v -37.59 c 0,-5.207 4.191,-9.399 9.394,-9.399 z"
           style="fill:#ffffff;fill-opacity:1;fill-rule:nonzero;stroke:#000000;stroke-width:0.99975;stroke-linecap:butt;stroke-linejoin:miter;stroke-miterlimit:4;stroke-dasharray:none;stroke-opacity:1"
           id="path16" /></g><g
         id="g18"
         style="stroke-width:0.99975;stroke-miterlimit:4;stroke-dasharray:none"><path
           d="m 532.895,384 h 71.75 v 9.398 h -71.75 z"
           style="fill:#ffffff;fill-opacity:1;fill-rule:nonzero;stroke:#000000;stroke-width:0.99975;stroke-linecap:round;stroke-linejoin:miter;stroke-miterlimit:4;stroke-dasharray:none;stroke-opacity:1"
           id="path20" /></g><path
         d="m 521.461,365.945 c 0.82,0 1.613,-0.062 2.375,-0.187 0.769,-0.133 1.476,-0.305 2.125,-0.516 0.656,-0.219 1.242,-0.469 1.766,-0.75 0.531,-0.281 0.961,-0.566 1.296,-0.859 v -3.781 h -6.671 v -4.235 h 11.921 v 10.047 c -0.625,0.637 -1.382,1.246 -2.265,1.828 -0.875,0.574 -1.867,1.078 -2.969,1.516 -1.094,0.43 -2.293,0.773 -3.594,1.031 -1.304,0.258 -2.683,0.391 -4.14,0.391 -2.43,0 -4.516,-0.356 -6.266,-1.063 -1.742,-0.707 -3.172,-1.691 -4.297,-2.953 -1.125,-1.258 -1.961,-2.754 -2.5,-4.484 -0.543,-1.739 -0.812,-3.641 -0.812,-5.703 0,-2.133 0.285,-4.063 0.859,-5.782 0.57,-1.718 1.438,-3.179 2.594,-4.39 1.156,-1.219 2.609,-2.149 4.359,-2.797 1.758,-0.656 3.82,-0.985 6.188,-0.985 1.726,0 3.258,0.172 4.593,0.516 1.344,0.336 2.516,0.813 3.516,1.438 1,0.617 1.836,1.359 2.516,2.234 0.687,0.875 1.226,1.855 1.625,2.937 l -5.282,1.594 c -0.23,-0.57 -0.539,-1.113 -0.921,-1.625 -0.387,-0.508 -0.872,-0.953 -1.454,-1.328 -0.574,-0.383 -1.242,-0.691 -2,-0.922 -0.75,-0.226 -1.617,-0.344 -2.593,-0.344 -1.418,0 -2.649,0.227 -3.688,0.672 -1.031,0.45 -1.887,1.09 -2.562,1.922 -0.668,0.824 -1.168,1.821 -1.5,2.985 -0.325,1.156 -0.485,2.449 -0.485,3.875 0,1.429 0.164,2.742 0.5,3.937 0.332,1.188 0.836,2.211 1.516,3.063 0.676,0.855 1.531,1.523 2.562,2 1.039,0.48 2.27,0.718 3.688,0.718 z"
         style="fill:#ffffff;fill-opacity:1;fill-rule:nonzero;stroke:none;stroke-width:0.99975;stroke-miterlimit:4;stroke-dasharray:none"
         id="path22" /><g
         id="g24"
         style="stroke-width:0.99975;stroke-miterlimit:4;stroke-dasharray:none"><path
           d="m 521.555,365.914 c 0.832,0 1.629,-0.062 2.39,-0.187 0.77,-0.133 1.485,-0.305 2.141,-0.516 0.656,-0.219 1.25,-0.469 1.781,-0.75 0.531,-0.281 0.961,-0.57 1.297,-0.875 v -3.797 h -6.719 v -4.266 h 12 v 10.125 c -0.625,0.637 -1.383,1.247 -2.265,1.829 -0.887,0.574 -1.887,1.078 -3,1.515 -1.106,0.438 -2.313,0.789 -3.625,1.047 -1.305,0.258 -2.688,0.391 -4.157,0.391 -2.437,0 -4.539,-0.356 -6.296,-1.063 -1.762,-0.707 -3.211,-1.695 -4.344,-2.969 -1.125,-1.269 -1.961,-2.773 -2.5,-4.515 -0.543,-1.75 -0.813,-3.66 -0.813,-5.735 0,-2.144 0.285,-4.082 0.86,-5.812 0.57,-1.738 1.441,-3.211 2.609,-4.422 1.164,-1.219 2.629,-2.156 4.391,-2.812 1.769,-0.664 3.843,-1 6.218,-1 1.739,0 3.282,0.171 4.625,0.515 1.344,0.336 2.52,0.813 3.532,1.438 1.008,0.625 1.851,1.383 2.531,2.265 0.687,0.875 1.234,1.86 1.641,2.953 l -5.313,1.61 c -0.23,-0.571 -0.543,-1.113 -0.937,-1.625 -0.387,-0.52 -0.872,-0.973 -1.454,-1.36 -0.586,-0.382 -1.257,-0.691 -2.015,-0.921 -0.762,-0.227 -1.633,-0.344 -2.61,-0.344 -1.429,0 -2.664,0.23 -3.703,0.687 -1.043,0.45 -1.902,1.09 -2.578,1.922 -0.68,0.836 -1.183,1.836 -1.515,3 -0.325,1.156 -0.485,2.461 -0.485,3.906 0,1.438 0.164,2.758 0.5,3.954 0.332,1.199 0.836,2.23 1.516,3.093 0.687,0.856 1.551,1.524 2.594,2 1.039,0.481 2.273,0.719 3.703,0.719 z"
           style="fill:#000000;fill-opacity:1;fill-rule:nonzero;stroke:#000000;stroke-width:0.99975;stroke-linecap:butt;stroke-linejoin:miter;stroke-miterlimit:4;stroke-dasharray:none;stroke-opacity:1"
           id="path26" /></g><path
         d="m 561.887,351.336 c 0,1.18 -0.199,2.312 -0.594,3.406 -0.398,1.094 -1.008,2.063 -1.828,2.906 -0.813,0.844 -1.852,1.516 -3.11,2.016 -1.25,0.5 -2.734,0.75 -4.453,0.75 h -6.797 v 9.625 h -5.734 V 342.68 h 12.297 c 1.75,0 3.266,0.215 4.547,0.64 1.281,0.418 2.336,1.008 3.172,1.766 0.843,0.762 1.468,1.672 1.875,2.734 0.414,1.063 0.625,2.235 0.625,3.516 z m -5.782,0.109 c 0,-1.414 -0.421,-2.488 -1.265,-3.218 -0.844,-0.727 -2.117,-1.094 -3.813,-1.094 h -5.922 v 8.875 h 6.079 c 0.851,0 1.586,-0.11 2.203,-0.328 0.613,-0.227 1.125,-0.539 1.531,-0.938 0.406,-0.406 0.703,-0.89 0.891,-1.453 0.195,-0.562 0.296,-1.176 0.296,-1.844 z"
         style="fill:#ffffff;fill-opacity:1;fill-rule:nonzero;stroke:none;stroke-width:0.99975;stroke-miterlimit:4;stroke-dasharray:none"
         id="path28" /><g
         id="g30"
         style="stroke-width:0.99975;stroke-miterlimit:4;stroke-dasharray:none"><path
           d="m 562.027,351.227 c 0,1.187 -0.199,2.335 -0.593,3.437 -0.399,1.094 -1.008,2.07 -1.829,2.922 -0.824,0.844 -1.867,1.516 -3.125,2.016 -1.261,0.5 -2.757,0.75 -4.484,0.75 h -6.844 v 9.687 h -5.765 v -27.516 h 12.375 c 1.75,0 3.269,0.215 4.562,0.641 1.289,0.418 2.36,1.012 3.203,1.781 0.844,0.762 1.469,1.68 1.875,2.75 0.414,1.063 0.625,2.243 0.625,3.532 z m -5.797,0.093 c 0,-1.414 -0.429,-2.488 -1.281,-3.218 -0.855,-0.739 -2.137,-1.11 -3.844,-1.11 h -5.953 v 8.922 h 6.11 c 0.863,0 1.601,-0.109 2.218,-0.328 0.625,-0.219 1.141,-0.531 1.547,-0.938 0.407,-0.406 0.707,-0.89 0.907,-1.453 0.195,-0.57 0.296,-1.195 0.296,-1.875 z"
           style="fill:#000000;fill-opacity:1;fill-rule:nonzero;stroke:#000000;stroke-width:0.99975;stroke-linecap:butt;stroke-linejoin:miter;stroke-miterlimit:4;stroke-dasharray:none;stroke-opacity:1"
           id="path32" /></g><path
         d="m 577.312,370.43 c -1.71,0 -3.277,-0.203 -4.703,-0.61 -1.418,-0.406 -2.64,-1.039 -3.671,-1.906 -1.032,-0.863 -1.836,-1.969 -2.407,-3.312 -0.574,-1.344 -0.859,-2.946 -0.859,-4.813 V 342.68 h 5.719 v 16.656 c 0,1.156 0.14,2.152 0.421,2.984 0.29,0.836 0.704,1.524 1.235,2.063 0.531,0.531 1.172,0.929 1.922,1.187 0.75,0.25 1.582,0.375 2.5,0.375 0.937,0 1.797,-0.129 2.578,-0.39 0.781,-0.27 1.453,-0.68 2.015,-1.235 0.563,-0.562 1,-1.269 1.313,-2.125 0.313,-0.851 0.469,-1.867 0.469,-3.047 V 342.68 h 5.734 v 16.812 c 0,1.875 -0.308,3.5 -0.922,4.875 -0.605,1.375 -1.453,2.516 -2.547,3.422 -1.086,0.899 -2.375,1.563 -3.875,2 -1.492,0.426 -3.132,0.641 -4.922,0.641 z"
         style="fill:#ffffff;fill-opacity:1;fill-rule:nonzero;stroke:none;stroke-width:0.99975;stroke-miterlimit:4;stroke-dasharray:none"
         id="path34" /><g
         id="g36"
         style="stroke-width:0.99975;stroke-miterlimit:4;stroke-dasharray:none"><path
           d="m 577.406,370.43 c -1.718,0 -3.297,-0.203 -4.734,-0.61 -1.43,-0.414 -2.664,-1.054 -3.703,-1.922 -1.031,-0.863 -1.84,-1.972 -2.422,-3.328 -0.574,-1.351 -0.859,-2.968 -0.859,-4.843 v -17.204 h 5.765 v 16.75 c 0,1.157 0.141,2.157 0.422,3 0.289,0.844 0.703,1.539 1.234,2.079 0.532,0.531 1.172,0.929 1.922,1.187 0.758,0.25 1.602,0.375 2.531,0.375 0.938,0 1.797,-0.129 2.579,-0.391 0.789,-0.269 1.468,-0.687 2.031,-1.25 0.57,-0.562 1.016,-1.269 1.328,-2.125 0.312,-0.863 0.469,-1.882 0.469,-3.062 v -16.563 h 5.765 v 16.907 c 0,1.886 -0.308,3.523 -0.922,4.906 -0.617,1.375 -1.468,2.516 -2.562,3.422 -1.094,0.906 -2.398,1.578 -3.906,2.015 -1.5,0.438 -3.149,0.657 -4.938,0.657 z"
           style="fill:#000000;fill-opacity:1;fill-rule:nonzero;stroke:#000000;stroke-width:0.99975;stroke-linecap:butt;stroke-linejoin:miter;stroke-miterlimit:4;stroke-dasharray:none;stroke-opacity:1"
           id="path38" /></g><path
         d="M 9.133,58.27 V 92.137 H 254.324 V 58.27 Z m 0,33.882 v 8.84 h 245.191 v -8.84 z"
         style="fill:#e1e1e1;fill-opacity:1;fill-rule:nonzero;stroke:none;stroke-width:0.99975;stroke-miterlimit:4;stroke-dasharray:none"
         id="path40" /><g
         id="g42"
         style="stroke-width:0.99975;stroke-miterlimit:4;stroke-dasharray:none"><path
           d="M 276.527,0.418 V 357.984"
           style="fill:none;stroke:#000000;stroke-width:0.99975;stroke-linecap:butt;stroke-linejoin:miter;stroke-miterlimit:4;stroke-dasharray:none;stroke-dashoffset:0;stroke-opacity:1"
           id="path44" /></g><path
         d="m 10.266,129.707 v 99.07 h 245.191 v -99.07 z m 0,99.113 v 25.86 h 245.191 v -25.86 z"
         style="fill:#e1e1e1;fill-opacity:1;fill-rule:nonzero;stroke:none;stroke-width:0.99975;stroke-miterlimit:4;stroke-dasharray:none"
         id="path46" /><g
         id="g48"
         style="stroke-width:0.99975;stroke-miterlimit:4;stroke-dasharray:none"><path
           d="M 0.801,50.242 H 245.992 V 92.527 H 0.801 Z"
           style="fill:#ffffff;fill-opacity:1;fill-rule:nonzero;stroke:#000000;stroke-width:0.99975;stroke-linecap:butt;stroke-linejoin:miter;stroke-miterlimit:4;stroke-dasharray:none;stroke-opacity:1"
           id="path50" /></g><path
         d="m 83.633,64.543 -2.563,6.969 h 5.141 z M 82.57,62.684 h 2.141 l 5.344,14 H 88.086 L 86.805,73.09 h -6.313 l -1.281,3.594 h -1.984 z"
         style="fill:#000000;fill-opacity:1;fill-rule:nonzero;stroke:none;stroke-width:0.99975;stroke-miterlimit:4;stroke-dasharray:none"
         id="path52" /><path
         d="m 93.688,75.105 v 5.579 h -1.735 v -14.5 h 1.735 v 1.593 c 0.351,-0.625 0.804,-1.086 1.359,-1.39 0.562,-0.301 1.223,-0.453 1.984,-0.453 1.281,0 2.317,0.507 3.11,1.515 0.8,1.012 1.203,2.344 1.203,4 0,1.649 -0.403,2.977 -1.203,3.985 -0.793,1.011 -1.829,1.515 -3.11,1.515 -0.761,0 -1.422,-0.152 -1.984,-0.453 -0.555,-0.301 -1.008,-0.766 -1.359,-1.391 z m 5.859,-3.656 c 0,-1.269 -0.262,-2.265 -0.781,-2.984 -0.524,-0.727 -1.243,-1.094 -2.157,-1.094 -0.906,0 -1.621,0.367 -2.14,1.094 -0.524,0.719 -0.781,1.715 -0.781,2.984 0,1.262 0.257,2.258 0.781,2.985 0.519,0.718 1.234,1.078 2.14,1.078 0.914,0 1.633,-0.36 2.157,-1.078 0.519,-0.727 0.781,-1.723 0.781,-2.985 z"
         style="fill:#000000;fill-opacity:1;fill-rule:nonzero;stroke:none;stroke-width:0.99975;stroke-miterlimit:4;stroke-dasharray:none"
         id="path54" /><path
         d="m 105.859,75.105 v 5.579 h -1.734 v -14.5 h 1.734 v 1.593 c 0.352,-0.625 0.805,-1.086 1.36,-1.39 0.562,-0.301 1.222,-0.453 1.984,-0.453 1.281,0 2.317,0.507 3.109,1.515 0.801,1.012 1.204,2.344 1.204,4 0,1.649 -0.403,2.977 -1.204,3.985 -0.792,1.011 -1.828,1.515 -3.109,1.515 -0.762,0 -1.422,-0.152 -1.984,-0.453 -0.555,-0.301 -1.008,-0.766 -1.36,-1.391 z m 5.86,-3.656 c 0,-1.269 -0.262,-2.265 -0.781,-2.984 -0.524,-0.727 -1.243,-1.094 -2.157,-1.094 -0.906,0 -1.621,0.367 -2.14,1.094 -0.524,0.719 -0.782,1.715 -0.782,2.984 0,1.262 0.258,2.258 0.782,2.985 0.519,0.718 1.234,1.078 2.14,1.078 0.914,0 1.633,-0.36 2.157,-1.078 0.519,-0.727 0.781,-1.723 0.781,-2.985 z"
         style="fill:#000000;fill-opacity:1;fill-rule:nonzero;stroke:none;stroke-width:0.99975;stroke-miterlimit:4;stroke-dasharray:none"
         id="path56" /><path
         d="m 116.359,62.09 h 1.719 v 14.594 h -1.719 z"
         style="fill:#000000;fill-opacity:1;fill-rule:nonzero;stroke:none;stroke-width:0.99975;stroke-miterlimit:4;stroke-dasharray:none"
         id="path58" /><path
         d="m 121.68,66.184 h 1.718 v 10.5 h -1.718 z m 0,-4.094 h 1.718 v 2.187 h -1.718 z"
         style="fill:#000000;fill-opacity:1;fill-rule:nonzero;stroke:none;stroke-width:0.99975;stroke-miterlimit:4;stroke-dasharray:none"
         id="path60" /><path
         d="m 134.543,66.59 v 1.609 c -0.481,-0.269 -0.969,-0.472 -1.469,-0.609 -0.492,-0.133 -0.984,-0.203 -1.484,-0.203 -1.117,0 -1.985,0.359 -2.61,1.078 -0.617,0.711 -0.921,1.703 -0.921,2.984 0,1.281 0.304,2.278 0.921,2.985 0.625,0.711 1.493,1.062 2.61,1.062 0.5,0 0.992,-0.066 1.484,-0.203 0.5,-0.133 0.988,-0.336 1.469,-0.609 v 1.593 c -0.481,0.231 -0.981,0.399 -1.5,0.5 -0.512,0.114 -1.059,0.172 -1.641,0.172 -1.574,0 -2.828,-0.492 -3.765,-1.484 -0.93,-0.988 -1.391,-2.328 -1.391,-4.016 0,-1.719 0.469,-3.066 1.406,-4.047 0.938,-0.976 2.227,-1.468 3.875,-1.468 0.532,0 1.047,0.058 1.547,0.171 0.508,0.106 1,0.266 1.469,0.485 z"
         style="fill:#000000;fill-opacity:1;fill-rule:nonzero;stroke:none;stroke-width:0.99975;stroke-miterlimit:4;stroke-dasharray:none"
         id="path62" /><path
         d="m 142.301,71.402 c -1.399,0 -2.367,0.164 -2.906,0.485 -0.532,0.312 -0.797,0.855 -0.797,1.625 0,0.617 0.203,1.105 0.609,1.468 0.406,0.356 0.953,0.532 1.641,0.532 0.957,0 1.722,-0.336 2.297,-1.016 0.582,-0.676 0.875,-1.578 0.875,-2.703 v -0.391 z m 3.453,-0.703 v 5.985 H 144.02 V 75.09 c -0.399,0.637 -0.891,1.105 -1.485,1.406 -0.586,0.301 -1.297,0.453 -2.14,0.453 -1.075,0 -1.93,-0.297 -2.563,-0.89 -0.637,-0.602 -0.953,-1.414 -0.953,-2.438 0,-1.176 0.394,-2.062 1.187,-2.656 0.789,-0.602 1.969,-0.906 3.532,-0.906 h 2.422 v -0.172 c 0,-0.789 -0.262,-1.407 -0.782,-1.844 -0.523,-0.438 -1.258,-0.656 -2.203,-0.656 -0.594,0 -1.18,0.074 -1.75,0.218 -0.574,0.149 -1.121,0.368 -1.64,0.657 v -1.61 c 0.632,-0.238 1.25,-0.414 1.843,-0.531 0.594,-0.125 1.172,-0.187 1.735,-0.187 1.507,0 2.64,0.398 3.39,1.187 0.758,0.781 1.141,1.977 1.141,3.578 z"
         style="fill:#000000;fill-opacity:1;fill-rule:nonzero;stroke:none;stroke-width:0.99975;stroke-miterlimit:4;stroke-dasharray:none"
         id="path64" /><path
         d="m 150.992,63.199 v 2.985 h 3.547 v 1.343 h -3.547 v 5.703 c 0,0.856 0.113,1.407 0.344,1.657 0.238,0.242 0.719,0.359 1.437,0.359 h 1.766 v 1.438 h -1.766 c -1.335,0 -2.257,-0.243 -2.765,-0.735 -0.5,-0.5 -0.75,-1.406 -0.75,-2.719 v -5.703 h -1.266 v -1.343 h 1.266 v -2.985 z"
         style="fill:#000000;fill-opacity:1;fill-rule:nonzero;stroke:none;stroke-width:0.99975;stroke-miterlimit:4;stroke-dasharray:none"
         id="path66" /><path
         d="m 156.812,66.184 h 1.719 v 10.5 h -1.719 z m 0,-4.094 h 1.719 v 2.187 h -1.719 z"
         style="fill:#000000;fill-opacity:1;fill-rule:nonzero;stroke:none;stroke-width:0.99975;stroke-miterlimit:4;stroke-dasharray:none"
         id="path68" /><path
         d="m 166.195,67.387 c -0.929,0 -1.664,0.367 -2.203,1.093 -0.531,0.719 -0.797,1.711 -0.797,2.969 0,1.25 0.266,2.242 0.797,2.969 0.539,0.719 1.274,1.078 2.203,1.078 0.914,0 1.645,-0.359 2.188,-1.078 0.539,-0.727 0.812,-1.719 0.812,-2.969 0,-1.25 -0.273,-2.238 -0.812,-2.969 -0.543,-0.726 -1.274,-1.093 -2.188,-1.093 z m 0,-1.453 c 1.5,0 2.676,0.492 3.532,1.468 0.863,0.969 1.296,2.321 1.296,4.047 0,1.719 -0.433,3.071 -1.296,4.047 -0.856,0.969 -2.032,1.453 -3.532,1.453 -1.5,0 -2.679,-0.484 -3.531,-1.453 -0.855,-0.976 -1.281,-2.328 -1.281,-4.047 0,-1.726 0.426,-3.078 1.281,-4.047 0.852,-0.976 2.031,-1.468 3.531,-1.468 z"
         style="fill:#000000;fill-opacity:1;fill-rule:nonzero;stroke:none;stroke-width:0.99975;stroke-miterlimit:4;stroke-dasharray:none"
         id="path70" /><path
         d="m 182.598,70.34 v 6.344 h -1.735 v -6.282 c 0,-0.988 -0.195,-1.726 -0.578,-2.218 -0.387,-0.5 -0.969,-0.75 -1.75,-0.75 -0.93,0 -1.664,0.296 -2.203,0.89 -0.531,0.594 -0.797,1.403 -0.797,2.422 v 5.938 h -1.734 v -10.5 h 1.734 v 1.625 c 0.406,-0.625 0.891,-1.094 1.453,-1.407 0.563,-0.312 1.207,-0.468 1.938,-0.468 1.207,0 2.117,0.375 2.734,1.125 0.625,0.742 0.938,1.836 0.938,3.281 z"
         style="fill:#000000;fill-opacity:1;fill-rule:nonzero;stroke:none;stroke-width:0.99975;stroke-miterlimit:4;stroke-dasharray:none"
         id="path72" /><g
         id="g74"
         style="stroke-width:0.99975;stroke-miterlimit:4;stroke-dasharray:none"><path
           d="m 0.949,161.188 h 245.215 v 84.758 H 0.949 Z"
           style="fill:#ffffff;fill-opacity:1;fill-rule:nonzero;stroke:#000000;stroke-width:0.99975;stroke-linecap:butt;stroke-linejoin:miter;stroke-miterlimit:4;stroke-dasharray:none;stroke-opacity:1"
           id="path76" /></g><path
         d="m 33.863,198.531 v 4.188 c -0.668,-0.477 -1.34,-0.832 -2.015,-1.063 -0.68,-0.226 -1.383,-0.344 -2.11,-0.344 -1.386,0 -2.465,0.418 -3.234,1.25 -0.762,0.836 -1.141,2 -1.141,3.5 0,1.5 0.379,2.668 1.141,3.5 0.769,0.836 1.848,1.25 3.234,1.25 0.77,0 1.504,-0.117 2.203,-0.359 0.696,-0.238 1.336,-0.594 1.922,-1.062 v 4.203 c -0.773,0.293 -1.558,0.508 -2.359,0.656 -0.793,0.156 -1.59,0.234 -2.391,0.234 -2.793,0 -4.976,-0.738 -6.547,-2.218 -1.574,-1.489 -2.359,-3.555 -2.359,-6.204 0,-2.644 0.785,-4.707 2.359,-6.187 1.571,-1.488 3.754,-2.234 6.547,-2.234 0.813,0 1.61,0.078 2.391,0.234 0.789,0.148 1.578,0.367 2.359,0.656 z"
         style="fill:#000000;fill-opacity:1;fill-rule:nonzero;stroke:none;stroke-width:0.99975;stroke-miterlimit:4;stroke-dasharray:none"
         id="path78" /><path
         d="m 38.109,191.797 h 4.953 v 22.266 h -4.953 z"
         style="fill:#000000;fill-opacity:1;fill-rule:nonzero;stroke:none;stroke-width:0.99975;stroke-miterlimit:4;stroke-dasharray:none"
         id="path80" /><path
         d="m 47.785,198.031 h 4.953 v 16.031 h -4.953 z m 0,-6.234 h 4.953 v 4.172 h -4.953 z"
         style="fill:#000000;fill-opacity:1;fill-rule:nonzero;stroke:none;stroke-width:0.99975;stroke-miterlimit:4;stroke-dasharray:none"
         id="path82" /><path
         d="m 73,206 v 1.469 H 61.438 c 0.113,1.199 0.531,2.101 1.25,2.703 0.718,0.605 1.722,0.906 3.015,0.906 1.039,0 2.102,-0.16 3.188,-0.484 1.093,-0.321 2.218,-0.805 3.375,-1.453 v 3.953 c -1.168,0.461 -2.34,0.804 -3.516,1.031 -1.168,0.238 -2.336,0.359 -3.5,0.359 -2.805,0 -4.98,-0.734 -6.531,-2.203 -1.555,-1.476 -2.328,-3.551 -2.328,-6.219 0,-2.613 0.757,-4.671 2.281,-6.171 1.531,-1.5 3.629,-2.25 6.297,-2.25 2.426,0 4.367,0.761 5.828,2.281 C 72.266,201.445 73,203.469 73,206 Z m -5.094,-1.703 c 0,-0.969 -0.277,-1.75 -0.828,-2.344 -0.543,-0.601 -1.258,-0.906 -2.14,-0.906 -0.961,0 -1.743,0.281 -2.344,0.844 -0.594,0.562 -0.965,1.367 -1.11,2.406 z"
         style="fill:#000000;fill-opacity:1;fill-rule:nonzero;stroke:none;stroke-width:0.99975;stroke-miterlimit:4;stroke-dasharray:none"
         id="path84" /><path
         d="m 92.289,204.297 v 9.765 h -4.984 v -7.468 c 0,-1.383 -0.032,-2.336 -0.094,-2.86 -0.055,-0.531 -0.152,-0.922 -0.297,-1.172 -0.199,-0.332 -0.465,-0.585 -0.797,-0.765 -0.324,-0.188 -0.699,-0.281 -1.125,-0.281 -1.031,0 -1.844,0.414 -2.437,1.234 -0.586,0.824 -0.875,1.965 -0.875,3.422 v 7.89 h -4.953 v -16.031 h 4.953 v 2.344 c 0.738,-0.926 1.523,-1.613 2.359,-2.063 0.844,-0.445 1.773,-0.671 2.797,-0.671 1.781,0 3.133,0.57 4.062,1.703 0.926,1.136 1.391,2.789 1.391,4.953 z"
         style="fill:#000000;fill-opacity:1;fill-rule:nonzero;stroke:none;stroke-width:0.99975;stroke-miterlimit:4;stroke-dasharray:none"
         id="path86" /><path
         d="m 102.246,193.484 v 4.547 h 5.094 v 3.672 h -5.094 v 6.797 c 0,0.742 0.141,1.242 0.422,1.5 0.289,0.262 0.859,0.391 1.703,0.391 h 2.547 v 3.671 h -4.25 c -1.949,0 -3.336,-0.421 -4.156,-1.265 -0.813,-0.844 -1.219,-2.274 -1.219,-4.297 v -6.797 H 94.84 v -3.672 h 2.453 v -4.547 z"
         style="fill:#000000;fill-opacity:1;fill-rule:nonzero;stroke:none;stroke-width:0.99975;stroke-miterlimit:4;stroke-dasharray:none"
         id="path88" /><path
         d="m 135.664,206 v 1.469 h -11.562 c 0.113,1.199 0.531,2.101 1.25,2.703 0.718,0.605 1.722,0.906 3.015,0.906 1.039,0 2.102,-0.16 3.188,-0.484 1.093,-0.321 2.218,-0.805 3.375,-1.453 v 3.953 c -1.168,0.461 -2.34,0.804 -3.516,1.031 -1.168,0.238 -2.336,0.359 -3.5,0.359 -2.805,0 -4.98,-0.734 -6.531,-2.203 -1.555,-1.476 -2.328,-3.551 -2.328,-6.219 0,-2.613 0.757,-4.671 2.281,-6.171 1.531,-1.5 3.629,-2.25 6.297,-2.25 2.426,0 4.367,0.761 5.828,2.281 1.469,1.523 2.203,3.547 2.203,6.078 z m -5.094,-1.703 c 0,-0.969 -0.277,-1.75 -0.828,-2.344 -0.543,-0.601 -1.258,-0.906 -2.14,-0.906 -0.961,0 -1.743,0.281 -2.344,0.844 -0.594,0.562 -0.965,1.367 -1.11,2.406 z"
         style="fill:#000000;fill-opacity:1;fill-rule:nonzero;stroke:none;stroke-width:0.99975;stroke-miterlimit:4;stroke-dasharray:none"
         id="path90" /><path
         d="m 154.953,204.297 v 9.765 h -4.984 v -7.468 c 0,-1.383 -0.031,-2.336 -0.094,-2.86 -0.055,-0.531 -0.152,-0.922 -0.297,-1.172 -0.199,-0.332 -0.465,-0.585 -0.797,-0.765 -0.324,-0.188 -0.699,-0.281 -1.125,-0.281 -1.031,0 -1.844,0.414 -2.437,1.234 -0.586,0.824 -0.875,1.965 -0.875,3.422 v 7.89 h -4.953 v -16.031 h 4.953 v 2.344 c 0.738,-0.926 1.523,-1.613 2.359,-2.063 0.844,-0.445 1.774,-0.671 2.797,-0.671 1.781,0 3.133,0.57 4.062,1.703 0.926,1.136 1.391,2.789 1.391,4.953 z"
         style="fill:#000000;fill-opacity:1;fill-rule:nonzero;stroke:none;stroke-width:0.99975;stroke-miterlimit:4;stroke-dasharray:none"
         id="path92" /><path
         d="m 170.035,211.344 c -0.687,0.937 -1.445,1.625 -2.265,2.062 -0.813,0.438 -1.758,0.656 -2.829,0.656 -1.898,0 -3.464,-0.769 -4.703,-2.312 -1.23,-1.539 -1.843,-3.504 -1.843,-5.891 0,-2.394 0.613,-4.359 1.843,-5.89 1.239,-1.531 2.805,-2.297 4.703,-2.297 1.071,0 2.016,0.219 2.829,0.656 0.82,0.438 1.578,1.133 2.265,2.078 v -2.375 h 4.969 v 14.407 c 0,2.582 -0.789,4.55 -2.359,5.906 -1.563,1.363 -3.84,2.047 -6.829,2.047 -0.968,0 -1.906,-0.079 -2.812,-0.235 -0.899,-0.148 -1.805,-0.383 -2.719,-0.703 v -3.984 c 0.875,0.508 1.723,0.89 2.547,1.14 0.832,0.258 1.664,0.391 2.5,0.391 1.625,0 2.813,-0.371 3.563,-1.109 0.757,-0.731 1.14,-1.879 1.14,-3.453 z m -3.265,-9.985 c -1.024,0 -1.821,0.399 -2.391,1.188 -0.574,0.781 -0.859,1.887 -0.859,3.312 0,1.469 0.273,2.586 0.828,3.344 0.562,0.762 1.367,1.141 2.422,1.141 1.031,0 1.832,-0.391 2.406,-1.172 0.57,-0.781 0.859,-1.883 0.859,-3.313 0,-1.425 -0.289,-2.531 -0.859,-3.312 -0.574,-0.789 -1.375,-1.188 -2.406,-1.188 z"
         style="fill:#000000;fill-opacity:1;fill-rule:nonzero;stroke:none;stroke-width:0.99975;stroke-miterlimit:4;stroke-dasharray:none"
         id="path94" /><path
         d="m 179.73,198.031 h 4.954 v 16.031 h -4.954 z m 0,-6.234 h 4.954 v 4.172 h -4.954 z"
         style="fill:#000000;fill-opacity:1;fill-rule:nonzero;stroke:none;stroke-width:0.99975;stroke-miterlimit:4;stroke-dasharray:none"
         id="path96" /><path
         d="m 205.055,204.297 v 9.765 h -4.985 v -7.468 c 0,-1.383 -0.031,-2.336 -0.093,-2.86 -0.055,-0.531 -0.153,-0.922 -0.297,-1.172 -0.2,-0.332 -0.465,-0.585 -0.797,-0.765 -0.324,-0.188 -0.699,-0.281 -1.125,-0.281 -1.031,0 -1.844,0.414 -2.438,1.234 -0.586,0.824 -0.875,1.965 -0.875,3.422 v 7.89 h -4.953 v -16.031 h 4.953 v 2.344 c 0.739,-0.926 1.524,-1.613 2.36,-2.063 0.843,-0.445 1.773,-0.671 2.797,-0.671 1.781,0 3.132,0.57 4.062,1.703 0.926,1.136 1.391,2.789 1.391,4.953 z"
         style="fill:#000000;fill-opacity:1;fill-rule:nonzero;stroke:none;stroke-width:0.99975;stroke-miterlimit:4;stroke-dasharray:none"
         id="path98" /><path
         d="m 225.059,206 v 1.469 h -11.563 c 0.113,1.199 0.531,2.101 1.25,2.703 0.719,0.605 1.723,0.906 3.016,0.906 1.039,0 2.101,-0.16 3.187,-0.484 1.094,-0.321 2.219,-0.805 3.375,-1.453 v 3.953 c -1.168,0.461 -2.34,0.804 -3.515,1.031 -1.168,0.238 -2.336,0.359 -3.5,0.359 -2.805,0 -4.981,-0.734 -6.532,-2.203 -1.554,-1.476 -2.328,-3.551 -2.328,-6.219 0,-2.613 0.758,-4.671 2.281,-6.171 1.532,-1.5 3.629,-2.25 6.297,-2.25 2.426,0 4.368,0.761 5.828,2.281 1.469,1.523 2.204,3.547 2.204,6.078 z m -5.094,-1.703 c 0,-0.969 -0.277,-1.75 -0.828,-2.344 -0.543,-0.601 -1.258,-0.906 -2.141,-0.906 -0.961,0 -1.742,0.281 -2.344,0.844 -0.593,0.562 -0.964,1.367 -1.109,2.406 z"
         style="fill:#000000;fill-opacity:1;fill-rule:nonzero;stroke:none;stroke-width:0.99975;stroke-miterlimit:4;stroke-dasharray:none"
         id="path100" /><path
         d="m 315.863,169.555 v 67.48 h 309.992 v -67.48 z m 0,67.511 v 17.614 h 309.992 v -17.614 z"
         style="fill:#e1e1e1;fill-opacity:1;fill-rule:nonzero;stroke:none;stroke-width:0.99975;stroke-miterlimit:4;stroke-dasharray:none"
         id="path102" /><g
         id="g104"
         style="stroke-width:0.99975;stroke-miterlimit:4;stroke-dasharray:none"><path
           d="m 306.402,161.332 v 42.273 h 0.075 v 42.227 h 176.101 v -42.227 h 135.227 v -42.273 z"
           style="fill:#ffffff;fill-opacity:1;fill-rule:nonzero;stroke:#000000;stroke-width:0.99975;stroke-linecap:butt;stroke-linejoin:miter;stroke-miterlimit:4;stroke-dasharray:none;stroke-opacity:1"
           id="path106" /></g><g
         id="g108"
         style="stroke-width:0.99975;stroke-miterlimit:4;stroke-dasharray:none"><path
           d="M 490.867,203.785 H 617.894 V 246.07 H 490.867 Z"
           style="fill:#ececec;fill-opacity:1;fill-rule:nonzero;stroke:#000000;stroke-width:0.99975;stroke-linecap:butt;stroke-linejoin:miter;stroke-miterlimit:4;stroke-dasharray:none;stroke-opacity:1"
           id="path110" /></g><path
         d="m 506.48,220.125 v 1.656 c -0.531,-0.488 -1.101,-0.851 -1.703,-1.093 -0.605,-0.25 -1.246,-0.376 -1.922,-0.376 -1.335,0 -2.355,0.407 -3.062,1.219 -0.711,0.813 -1.063,1.992 -1.063,3.531 0,1.543 0.352,2.719 1.063,3.532 0.707,0.812 1.727,1.218 3.062,1.218 0.676,0 1.317,-0.117 1.922,-0.359 0.602,-0.25 1.172,-0.617 1.703,-1.109 v 1.64 c -0.554,0.375 -1.14,0.664 -1.765,0.86 -0.617,0.187 -1.266,0.281 -1.953,0.281 -1.762,0 -3.153,-0.539 -4.172,-1.625 -1.012,-1.082 -1.516,-2.562 -1.516,-4.438 0,-1.874 0.504,-3.347 1.516,-4.421 1.019,-1.082 2.41,-1.625 4.172,-1.625 0.695,0 1.351,0.093 1.968,0.281 0.625,0.18 1.208,0.453 1.75,0.828 z"
         style="fill:#000000;fill-opacity:1;fill-rule:nonzero;stroke:none;stroke-width:0.99975;stroke-miterlimit:4;stroke-dasharray:none"
         id="path112" /><path
         d="m 508.727,219.219 h 1.593 v 7.093 c 0,1.25 0.223,2.153 0.672,2.704 0.457,0.543 1.192,0.812 2.203,0.812 1.008,0 1.739,-0.269 2.188,-0.812 0.457,-0.551 0.687,-1.454 0.687,-2.704 v -7.093 h 1.594 v 7.281 c 0,1.523 -0.383,2.672 -1.141,3.453 -0.75,0.781 -1.859,1.172 -3.328,1.172 -1.468,0 -2.586,-0.391 -3.343,-1.172 -0.75,-0.781 -1.125,-1.93 -1.125,-3.453 z"
         style="fill:#000000;fill-opacity:1;fill-rule:nonzero;stroke:none;stroke-width:0.99975;stroke-miterlimit:4;stroke-dasharray:none"
         id="path114" /><path
         d="m 522.191,220.516 v 9.078 h 1.907 c 1.601,0 2.781,-0.364 3.531,-1.094 0.75,-0.727 1.125,-1.879 1.125,-3.453 0,-1.563 -0.375,-2.707 -1.125,-3.438 -0.75,-0.726 -1.93,-1.093 -3.531,-1.093 z m -1.578,-1.297 h 3.235 c 2.257,0 3.914,0.476 4.968,1.422 1.063,0.937 1.594,2.406 1.594,4.406 0,2.012 -0.531,3.492 -1.594,4.437 -1.062,0.938 -2.718,1.407 -4.968,1.407 h -3.235 z"
         style="fill:#000000;fill-opacity:1;fill-rule:nonzero;stroke:none;stroke-width:0.99975;stroke-miterlimit:4;stroke-dasharray:none"
         id="path116" /><path
         d="m 536.551,220.781 -2.141,5.797 h 4.297 z m -0.891,-1.562 h 1.797 l 4.438,11.672 h -1.641 l -1.063,-3 h -5.25 l -1.062,3 h -1.672 z"
         style="fill:#000000;fill-opacity:1;fill-rule:nonzero;stroke:none;stroke-width:0.99975;stroke-miterlimit:4;stroke-dasharray:none"
         id="path118" /><path
         d="m 548.613,218.734 h 1.438 v 12.156 h -1.438 z"
         style="fill:#000000;fill-opacity:1;fill-rule:nonzero;stroke:none;stroke-width:0.99975;stroke-miterlimit:4;stroke-dasharray:none"
         id="path120" /><path
         d="m 553.047,222.141 h 1.437 v 8.75 h -1.437 z m 0,-3.407 h 1.437 v 1.813 h -1.437 z"
         style="fill:#000000;fill-opacity:1;fill-rule:nonzero;stroke:none;stroke-width:0.99975;stroke-miterlimit:4;stroke-dasharray:none"
         id="path122" /><path
         d="m 563.758,226.516 c 0,-1.051 -0.219,-1.879 -0.656,-2.485 -0.438,-0.601 -1.04,-0.906 -1.797,-0.906 -0.762,0 -1.36,0.305 -1.797,0.906 -0.43,0.606 -0.641,1.434 -0.641,2.485 0,1.062 0.211,1.898 0.641,2.5 0.437,0.593 1.035,0.89 1.797,0.89 0.757,0 1.359,-0.297 1.797,-0.89 0.437,-0.602 0.656,-1.438 0.656,-2.5 z m -4.891,-3.047 c 0.301,-0.52 0.68,-0.907 1.141,-1.157 0.457,-0.257 1.008,-0.39 1.656,-0.39 1.063,0 1.922,0.422 2.578,1.266 0.664,0.843 1,1.953 1,3.328 0,1.375 -0.336,2.492 -1,3.343 -0.656,0.844 -1.515,1.266 -2.578,1.266 -0.648,0 -1.199,-0.125 -1.656,-0.375 -0.461,-0.258 -0.84,-0.648 -1.141,-1.172 v 1.313 h -1.453 v -12.157 h 1.453 z"
         style="fill:#000000;fill-opacity:1;fill-rule:nonzero;stroke:none;stroke-width:0.99975;stroke-miterlimit:4;stroke-dasharray:none"
         id="path124" /><path
         d="m 572.684,223.484 c -0.157,-0.093 -0.336,-0.16 -0.532,-0.203 -0.187,-0.051 -0.398,-0.078 -0.625,-0.078 -0.812,0 -1.437,0.266 -1.875,0.797 -0.429,0.531 -0.64,1.293 -0.64,2.281 v 4.61 h -1.453 v -8.75 h 1.453 v 1.359 c 0.3,-0.531 0.691,-0.926 1.172,-1.188 0.488,-0.257 1.078,-0.39 1.765,-0.39 0.102,0 0.211,0.012 0.328,0.031 0.125,0.012 0.258,0.027 0.407,0.047 z"
         style="fill:#000000;fill-opacity:1;fill-rule:nonzero;stroke:none;stroke-width:0.99975;stroke-miterlimit:4;stroke-dasharray:none"
         id="path126" /><path
         d="m 578.168,226.484 c -1.156,0 -1.961,0.137 -2.406,0.407 -0.45,0.261 -0.672,0.714 -0.672,1.359 0,0.512 0.164,0.918 0.5,1.219 0.332,0.293 0.789,0.437 1.375,0.437 0.789,0 1.426,-0.281 1.906,-0.844 0.488,-0.562 0.734,-1.312 0.734,-2.25 v -0.328 z m 2.875,-0.593 v 5 h -1.438 v -1.329 c -0.335,0.532 -0.746,0.93 -1.234,1.188 -0.492,0.25 -1.09,0.375 -1.797,0.375 -0.898,0 -1.609,-0.25 -2.14,-0.75 -0.524,-0.508 -0.782,-1.187 -0.782,-2.031 0,-0.989 0.328,-1.735 0.985,-2.235 0.656,-0.5 1.64,-0.75 2.953,-0.75 h 2.015 v -0.14 c 0,-0.657 -0.218,-1.164 -0.656,-1.531 -0.437,-0.364 -1.047,-0.547 -1.828,-0.547 -0.5,0 -0.992,0.062 -1.469,0.187 -0.468,0.117 -0.922,0.293 -1.359,0.531 v -1.328 c 0.519,-0.195 1.023,-0.347 1.516,-0.453 0.5,-0.101 0.984,-0.156 1.453,-0.156 1.269,0 2.218,0.328 2.843,0.984 0.625,0.656 0.938,1.653 0.938,2.985 z"
         style="fill:#000000;fill-opacity:1;fill-rule:nonzero;stroke:none;stroke-width:0.99975;stroke-miterlimit:4;stroke-dasharray:none"
         id="path128" /><path
         d="m 589.051,223.484 c -0.156,-0.093 -0.336,-0.16 -0.531,-0.203 -0.188,-0.051 -0.399,-0.078 -0.625,-0.078 -0.813,0 -1.438,0.266 -1.875,0.797 -0.43,0.531 -0.641,1.293 -0.641,2.281 v 4.61 h -1.453 v -8.75 h 1.453 v 1.359 c 0.301,-0.531 0.691,-0.926 1.172,-1.188 0.488,-0.257 1.078,-0.39 1.765,-0.39 0.102,0 0.211,0.012 0.329,0.031 0.125,0.012 0.257,0.027 0.406,0.047 z"
         style="fill:#000000;fill-opacity:1;fill-rule:nonzero;stroke:none;stroke-width:0.99975;stroke-miterlimit:4;stroke-dasharray:none"
         id="path130" /><path
         d="m 590.566,222.141 h 1.438 v 8.75 h -1.438 z m 0,-3.407 h 1.438 v 1.813 h -1.438 z"
         style="fill:#000000;fill-opacity:1;fill-rule:nonzero;stroke:none;stroke-width:0.99975;stroke-miterlimit:4;stroke-dasharray:none"
         id="path132" /><path
         d="m 602.48,226.156 v 0.703 h -6.609 c 0.063,0.993 0.359,1.746 0.891,2.266 0.531,0.512 1.273,0.766 2.234,0.766 0.551,0 1.082,-0.067 1.594,-0.203 0.519,-0.133 1.035,-0.336 1.547,-0.61 v 1.36 c -0.512,0.218 -1.039,0.386 -1.578,0.5 -0.543,0.124 -1.094,0.187 -1.657,0.187 -1.398,0 -2.5,-0.406 -3.312,-1.219 -0.813,-0.82 -1.219,-1.926 -1.219,-3.312 0,-1.426 0.383,-2.563 1.156,-3.406 0.77,-0.844 1.813,-1.266 3.125,-1.266 1.176,0 2.11,0.383 2.797,1.14 0.688,0.762 1.031,1.793 1.031,3.094 z m -1.437,-0.422 c -0.012,-0.789 -0.234,-1.422 -0.672,-1.89 -0.43,-0.469 -0.996,-0.703 -1.703,-0.703 -0.805,0 -1.445,0.23 -1.922,0.687 -0.48,0.449 -0.758,1.086 -0.828,1.906 z"
         style="fill:#000000;fill-opacity:1;fill-rule:nonzero;stroke:none;stroke-width:0.99975;stroke-miterlimit:4;stroke-dasharray:none"
         id="path134" /><path
         d="m 610.414,222.391 v 1.359 c -0.406,-0.207 -0.828,-0.363 -1.266,-0.469 -0.437,-0.101 -0.89,-0.156 -1.359,-0.156 -0.719,0 -1.258,0.109 -1.609,0.328 -0.356,0.219 -0.532,0.547 -0.532,0.985 0,0.335 0.125,0.601 0.375,0.796 0.258,0.188 0.774,0.368 1.547,0.532 l 0.485,0.109 c 1.019,0.219 1.742,0.531 2.172,0.937 0.437,0.399 0.656,0.95 0.656,1.657 0,0.812 -0.324,1.461 -0.969,1.937 -0.648,0.481 -1.531,0.719 -2.656,0.719 -0.469,0 -0.961,-0.047 -1.469,-0.141 -0.5,-0.093 -1.031,-0.234 -1.594,-0.422 v -1.484 c 0.532,0.281 1.051,0.492 1.563,0.625 0.519,0.137 1.031,0.203 1.531,0.203 0.676,0 1.195,-0.113 1.563,-0.344 0.363,-0.226 0.546,-0.554 0.546,-0.984 0,-0.383 -0.132,-0.68 -0.39,-0.89 -0.262,-0.208 -0.84,-0.411 -1.735,-0.61 l -0.5,-0.109 c -0.886,-0.188 -1.527,-0.473 -1.921,-0.86 -0.399,-0.394 -0.594,-0.929 -0.594,-1.609 0,-0.82 0.289,-1.457 0.875,-1.906 0.582,-0.446 1.41,-0.672 2.484,-0.672 0.531,0 1.031,0.043 1.5,0.125 0.469,0.074 0.899,0.187 1.297,0.344 z"
         style="fill:#000000;fill-opacity:1;fill-rule:nonzero;stroke:none;stroke-width:0.99975;stroke-miterlimit:4;stroke-dasharray:none"
         id="path136" /><path
         d="m 359.559,185.109 v 3.813 c -1.075,-0.445 -2.118,-0.781 -3.125,-1 -1,-0.227 -1.946,-0.344 -2.829,-0.344 -0.96,0 -1.671,0.121 -2.14,0.36 -0.461,0.242 -0.688,0.609 -0.688,1.109 0,0.398 0.172,0.703 0.516,0.922 0.352,0.219 0.988,0.383 1.906,0.484 l 0.875,0.125 c 2.582,0.324 4.317,0.86 5.203,1.61 0.895,0.75 1.344,1.929 1.344,3.531 0,1.679 -0.621,2.937 -1.859,3.781 -1.242,0.844 -3.09,1.266 -5.547,1.266 -1.043,0 -2.121,-0.086 -3.235,-0.25 -1.105,-0.157 -2.242,-0.399 -3.406,-0.735 v -3.828 c 1,0.492 2.024,0.859 3.078,1.109 1.051,0.243 2.125,0.36 3.219,0.36 0.977,0 1.719,-0.133 2.219,-0.406 0.5,-0.27 0.75,-0.676 0.75,-1.219 0,-0.445 -0.172,-0.781 -0.516,-1 -0.344,-0.219 -1.027,-0.391 -2.047,-0.516 l -0.89,-0.109 c -2.242,-0.281 -3.813,-0.801 -4.719,-1.563 -0.898,-0.757 -1.344,-1.91 -1.344,-3.453 0,-1.664 0.571,-2.898 1.719,-3.703 1.145,-0.812 2.898,-1.219 5.266,-1.219 0.925,0 1.898,0.075 2.921,0.219 1.02,0.137 2.129,0.356 3.329,0.656 z"
         style="fill:#000000;fill-opacity:1;fill-rule:nonzero;stroke:none;stroke-width:0.99975;stroke-miterlimit:4;stroke-dasharray:none"
         id="path138" /><path
         d="m 380.117,192.438 v 1.437 h -11.765 c 0.113,1.187 0.535,2.078 1.265,2.672 0.738,0.586 1.766,0.875 3.078,0.875 1.051,0 2.133,-0.156 3.25,-0.469 1.114,-0.312 2.254,-0.789 3.422,-1.437 v 3.89 c -1.187,0.449 -2.383,0.789 -3.578,1.016 -1.187,0.226 -2.375,0.344 -3.562,0.344 -2.856,0 -5.075,-0.723 -6.657,-2.172 -1.574,-1.446 -2.359,-3.477 -2.359,-6.094 0,-2.57 0.773,-4.594 2.328,-6.062 1.551,-1.469 3.688,-2.204 6.406,-2.204 2.477,0 4.457,0.746 5.938,2.235 1.488,1.492 2.234,3.48 2.234,5.969 z m -5.172,-1.672 c 0,-0.957 -0.281,-1.727 -0.843,-2.313 -0.555,-0.582 -1.282,-0.875 -2.188,-0.875 -0.969,0 -1.762,0.277 -2.375,0.828 -0.605,0.543 -0.984,1.328 -1.141,2.36 z"
         style="fill:#000000;fill-opacity:1;fill-rule:nonzero;stroke:none;stroke-width:0.99975;stroke-miterlimit:4;stroke-dasharray:none"
         id="path140" /><path
         d="m 395.629,188.906 c -0.449,-0.207 -0.891,-0.359 -1.328,-0.453 -0.43,-0.101 -0.867,-0.156 -1.313,-0.156 -1.293,0 -2.289,0.418 -2.984,1.25 -0.699,0.824 -1.047,2.012 -1.047,3.562 v 7.25 h -5.031 v -15.75 h 5.031 v 2.594 c 0.645,-1.031 1.383,-1.781 2.219,-2.25 0.844,-0.476 1.851,-0.719 3.031,-0.719 0.164,0 0.348,0.012 0.547,0.032 0.195,0.011 0.484,0.039 0.859,0.078 z"
         style="fill:#000000;fill-opacity:1;fill-rule:nonzero;stroke:none;stroke-width:0.99975;stroke-miterlimit:4;stroke-dasharray:none"
         id="path142" /><path
         d="m 396.141,184.609 h 5.031 L 405.094,195.5 409,184.609 h 5.047 l -6.188,15.75 h -5.531 z"
         style="fill:#000000;fill-opacity:1;fill-rule:nonzero;stroke:none;stroke-width:0.99975;stroke-miterlimit:4;stroke-dasharray:none"
         id="path144" /><path
         d="m 432.59,192.438 v 1.437 h -11.766 c 0.114,1.187 0.535,2.078 1.266,2.672 0.738,0.586 1.765,0.875 3.078,0.875 1.051,0 2.133,-0.156 3.25,-0.469 1.113,-0.312 2.254,-0.789 3.422,-1.437 v 3.89 c -1.188,0.449 -2.383,0.789 -3.578,1.016 -1.188,0.226 -2.375,0.344 -3.563,0.344 -2.855,0 -5.074,-0.723 -6.656,-2.172 -1.574,-1.446 -2.359,-3.477 -2.359,-6.094 0,-2.57 0.773,-4.594 2.328,-6.062 1.55,-1.469 3.687,-2.204 6.406,-2.204 2.477,0 4.457,0.746 5.937,2.235 1.489,1.492 2.235,3.48 2.235,5.969 z m -5.172,-1.672 c 0,-0.957 -0.281,-1.727 -0.844,-2.313 -0.554,-0.582 -1.281,-0.875 -2.187,-0.875 -0.969,0 -1.762,0.277 -2.375,0.828 -0.606,0.543 -0.985,1.328 -1.141,2.36 z"
         style="fill:#000000;fill-opacity:1;fill-rule:nonzero;stroke:none;stroke-width:0.99975;stroke-miterlimit:4;stroke-dasharray:none"
         id="path146" /><path
         d="m 448.102,188.906 c -0.45,-0.207 -0.891,-0.359 -1.329,-0.453 -0.429,-0.101 -0.867,-0.156 -1.312,-0.156 -1.293,0 -2.289,0.418 -2.984,1.25 -0.7,0.824 -1.047,2.012 -1.047,3.562 v 7.25 h -5.032 v -15.75 h 5.032 v 2.594 c 0.644,-1.031 1.382,-1.781 2.218,-2.25 0.844,-0.476 1.852,-0.719 3.032,-0.719 0.164,0 0.347,0.012 0.547,0.032 0.195,0.011 0.484,0.039 0.859,0.078 z"
         style="fill:#000000;fill-opacity:1;fill-rule:nonzero;stroke:none;stroke-width:0.99975;stroke-miterlimit:4;stroke-dasharray:none"
         id="path148" /><path
         d="m 359.383,219.512 v 1.437 h -11.766 c 0.113,1.188 0.535,2.078 1.266,2.672 0.738,0.586 1.765,0.875 3.078,0.875 1.051,0 2.133,-0.156 3.25,-0.469 1.113,-0.312 2.254,-0.789 3.422,-1.437 v 3.89 c -1.188,0.45 -2.383,0.79 -3.578,1.016 -1.188,0.227 -2.375,0.344 -3.563,0.344 -2.855,0 -5.074,-0.723 -6.656,-2.172 -1.574,-1.445 -2.359,-3.477 -2.359,-6.094 0,-2.57 0.773,-4.594 2.328,-6.062 1.55,-1.469 3.687,-2.203 6.406,-2.203 2.477,0 4.457,0.746 5.937,2.234 1.489,1.492 2.235,3.48 2.235,5.969 z m -5.172,-1.672 c 0,-0.957 -0.281,-1.727 -0.844,-2.313 -0.555,-0.582 -1.281,-0.875 -2.187,-0.875 -0.969,0 -1.762,0.278 -2.375,0.828 -0.606,0.543 -0.985,1.329 -1.141,2.36 z"
         style="fill:#000000;fill-opacity:1;fill-rule:nonzero;stroke:none;stroke-width:0.99975;stroke-miterlimit:4;stroke-dasharray:none"
         id="path150" /><path
         d="m 379.016,217.84 v 9.594 h -5.063 v -7.344 c 0,-1.352 -0.031,-2.285 -0.094,-2.797 -0.062,-0.52 -0.168,-0.906 -0.312,-1.156 -0.199,-0.321 -0.469,-0.571 -0.813,-0.75 -0.336,-0.188 -0.714,-0.282 -1.14,-0.282 -1.055,0 -1.883,0.407 -2.485,1.219 -0.593,0.805 -0.89,1.922 -0.89,3.36 v 7.75 h -5.031 v -15.75 h 5.031 v 2.312 c 0.758,-0.914 1.566,-1.594 2.422,-2.031 0.851,-0.438 1.797,-0.656 2.828,-0.656 1.812,0 3.187,0.558 4.125,1.671 0.945,1.118 1.422,2.735 1.422,4.86 z"
         style="fill:#000000;fill-opacity:1;fill-rule:nonzero;stroke:none;stroke-width:0.99975;stroke-miterlimit:4;stroke-dasharray:none"
         id="path152" /><path
         d="m 394.383,224.762 c -0.699,0.918 -1.465,1.593 -2.297,2.031 -0.836,0.43 -1.805,0.641 -2.906,0.641 -1.918,0 -3.508,-0.754 -4.766,-2.266 -1.25,-1.52 -1.875,-3.453 -1.875,-5.797 0,-2.351 0.625,-4.281 1.875,-5.781 1.258,-1.5 2.848,-2.25 4.766,-2.25 1.101,0 2.07,0.215 2.906,0.64 0.832,0.43 1.598,1.106 2.297,2.032 v -2.328 h 5.047 v 14.156 c 0,2.531 -0.797,4.461 -2.391,5.797 -1.594,1.343 -3.914,2.015 -6.953,2.015 -0.981,0 -1.934,-0.078 -2.859,-0.234 -0.918,-0.148 -1.84,-0.375 -2.766,-0.688 v -3.921 c 0.883,0.507 1.75,0.882 2.594,1.125 0.843,0.25 1.691,0.375 2.547,0.375 1.644,0 2.851,-0.36 3.625,-1.079 0.769,-0.718 1.156,-1.847 1.156,-3.39 z m -3.328,-9.797 c -1.043,0 -1.856,0.387 -2.438,1.156 -0.574,0.762 -0.859,1.844 -0.859,3.25 0,1.449 0.281,2.547 0.844,3.297 0.562,0.742 1.378,1.109 2.453,1.109 1.05,0 1.867,-0.382 2.453,-1.156 0.582,-0.769 0.875,-1.851 0.875,-3.25 0,-1.406 -0.293,-2.488 -0.875,-3.25 -0.586,-0.769 -1.403,-1.156 -2.453,-1.156 z"
         style="fill:#000000;fill-opacity:1;fill-rule:nonzero;stroke:none;stroke-width:0.99975;stroke-miterlimit:4;stroke-dasharray:none"
         id="path154" /><path
         d="m 404.258,211.684 h 5.031 v 15.75 h -5.031 z m 0,-6.125 h 5.031 v 4.109 h -5.031 z"
         style="fill:#000000;fill-opacity:1;fill-rule:nonzero;stroke:none;stroke-width:0.99975;stroke-miterlimit:4;stroke-dasharray:none"
         id="path156" /><path
         d="m 429.934,217.84 v 9.594 h -5.063 v -7.344 c 0,-1.352 -0.031,-2.285 -0.094,-2.797 -0.062,-0.52 -0.168,-0.906 -0.312,-1.156 -0.199,-0.321 -0.469,-0.571 -0.813,-0.75 -0.336,-0.188 -0.714,-0.282 -1.14,-0.282 -1.055,0 -1.883,0.407 -2.485,1.219 -0.593,0.805 -0.89,1.922 -0.89,3.36 v 7.75 h -5.032 v -15.75 h 5.032 v 2.312 c 0.758,-0.914 1.566,-1.594 2.422,-2.031 0.851,-0.438 1.796,-0.656 2.828,-0.656 1.812,0 3.187,0.558 4.125,1.671 0.945,1.118 1.422,2.735 1.422,4.86 z"
         style="fill:#000000;fill-opacity:1;fill-rule:nonzero;stroke:none;stroke-width:0.99975;stroke-miterlimit:4;stroke-dasharray:none"
         id="path158" /><path
         d="m 450.391,219.512 v 1.437 h -11.766 c 0.113,1.188 0.535,2.078 1.266,2.672 0.738,0.586 1.765,0.875 3.078,0.875 1.051,0 2.133,-0.156 3.25,-0.469 1.113,-0.312 2.254,-0.789 3.422,-1.437 v 3.89 c -1.188,0.45 -2.383,0.79 -3.579,1.016 -1.187,0.227 -2.374,0.344 -3.562,0.344 -2.855,0 -5.074,-0.723 -6.656,-2.172 -1.574,-1.445 -2.36,-3.477 -2.36,-6.094 0,-2.57 0.774,-4.594 2.328,-6.062 1.551,-1.469 3.688,-2.203 6.407,-2.203 2.476,0 4.457,0.746 5.937,2.234 1.489,1.492 2.235,3.48 2.235,5.969 z m -5.172,-1.672 c 0,-0.957 -0.281,-1.727 -0.844,-2.313 -0.555,-0.582 -1.281,-0.875 -2.187,-0.875 -0.969,0 -1.762,0.278 -2.376,0.828 -0.605,0.543 -0.984,1.329 -1.14,2.36 z"
         style="fill:#000000;fill-opacity:1;fill-rule:nonzero;stroke:none;stroke-width:0.99975;stroke-miterlimit:4;stroke-dasharray:none"
         id="path160" /></g><g
       id="g162"
       style="stroke-width:0.99975;stroke-miterlimit:4;stroke-dasharray:none"><g
         id="g164"
         clip-path="url(#clipPath168)"
         style="stroke-width:0.99975;stroke-miterlimit:4;stroke-dasharray:none"><g
           id="g170"
           style="stroke-width:0.99975;stroke-miterlimit:4;stroke-dasharray:none"><g
             id="g172"
             style="stroke-width:0.99975;stroke-miterlimit:4;stroke-dasharray:none"><g
               id="g174"
               clip-path="url(#clipPath178)"
               style="stroke-width:0.99975;stroke-miterlimit:4;stroke-dasharray:none"><g
                 id="g180"
                 style="stroke-width:0.99975;stroke-miterlimit:4;stroke-dasharray:none"><g
                   id="g182"
                   style="stroke-width:0.99975;stroke-miterlimit:4;stroke-dasharray:none"><path
                     d="M 1.199,297.957 H 630.648"
                     style="fill:none;stroke:#000000;stroke-width:0.99975;stroke-linecap:butt;stroke-linejoin:miter;stroke-miterlimit:4;stroke-dasharray:none;stroke-dashoffset:5.04;stroke-opacity:1"
                     id="path184" /></g></g></g></g></g></g></g><g
       id="g186"
       style="stroke-width:0.99975;stroke-miterlimit:4;stroke-dasharray:none"><path
         d="m 3.422,308.523 h 4.203 v 6.219 h 6.219 v -6.219 h 4.203 v 16.329 H 13.844 V 317.93 H 7.625 v 6.922 H 3.422 Z"
         style="fill:#000000;fill-opacity:1;fill-rule:nonzero;stroke:none;stroke-width:0.99975;stroke-miterlimit:4;stroke-dasharray:none"
         id="path188" /><path
         d="m 27.461,319.336 c -0.813,0 -1.43,0.141 -1.844,0.422 -0.418,0.273 -0.625,0.68 -0.625,1.219 0,0.5 0.164,0.89 0.5,1.171 0.332,0.282 0.797,0.422 1.391,0.422 0.738,0 1.359,-0.265 1.859,-0.797 0.5,-0.531 0.75,-1.191 0.75,-1.984 v -0.453 z m 5.984,-1.469 v 6.985 h -3.953 v -1.813 c -0.523,0.742 -1.109,1.281 -1.765,1.625 -0.657,0.332 -1.461,0.5 -2.407,0.5 -1.261,0 -2.289,-0.367 -3.078,-1.109 -0.793,-0.739 -1.187,-1.696 -1.187,-2.875 0,-1.438 0.488,-2.489 1.468,-3.157 0.989,-0.675 2.539,-1.015 4.657,-1.015 h 2.312 v -0.313 c 0,-0.613 -0.246,-1.062 -0.734,-1.343 -0.492,-0.29 -1.25,-0.438 -2.281,-0.438 -0.844,0 -1.625,0.086 -2.344,0.25 -0.719,0.168 -1.391,0.418 -2.016,0.75 v -2.984 c 0.844,-0.207 1.688,-0.364 2.531,-0.469 0.844,-0.102 1.688,-0.156 2.532,-0.156 2.218,0 3.816,0.437 4.797,1.312 0.976,0.867 1.468,2.281 1.468,4.25 z"
         style="fill:#000000;fill-opacity:1;fill-rule:nonzero;stroke:none;stroke-width:0.99975;stroke-miterlimit:4;stroke-dasharray:none"
         id="path190" /><path
         d="m 46.168,315.93 c -0.344,-0.157 -0.688,-0.27 -1.031,-0.344 -0.336,-0.082 -0.672,-0.125 -1.016,-0.125 -1.012,0 -1.789,0.324 -2.328,0.969 -0.543,0.648 -0.813,1.574 -0.813,2.781 v 5.641 h -3.921 v -12.25 h 3.921 v 2.015 c 0.5,-0.801 1.079,-1.383 1.735,-1.75 0.656,-0.375 1.437,-0.562 2.344,-0.562 0.132,0 0.273,0.007 0.421,0.015 0.157,0.012 0.379,0.032 0.672,0.063 z"
         style="fill:#000000;fill-opacity:1;fill-rule:nonzero;stroke:none;stroke-width:0.99975;stroke-miterlimit:4;stroke-dasharray:none"
         id="path192" /><path
         d="m 56.512,314.398 v -6.578 h 3.937 v 17.032 h -3.937 v -1.766 c -0.543,0.719 -1.137,1.246 -1.782,1.578 -0.648,0.332 -1.398,0.5 -2.25,0.5 -1.511,0 -2.757,-0.598 -3.734,-1.797 -0.969,-1.195 -1.453,-2.738 -1.453,-4.625 0,-1.894 0.484,-3.441 1.453,-4.64 0.977,-1.196 2.223,-1.797 3.734,-1.797 0.844,0 1.586,0.172 2.235,0.515 0.656,0.336 1.254,0.86 1.797,1.578 z m -2.578,7.922 c 0.832,0 1.468,-0.3 1.906,-0.906 0.445,-0.613 0.672,-1.504 0.672,-2.672 0,-1.164 -0.227,-2.054 -0.672,-2.672 -0.438,-0.613 -1.074,-0.922 -1.906,-0.922 -0.836,0 -1.477,0.309 -1.922,0.922 -0.438,0.618 -0.657,1.508 -0.657,2.672 0,1.168 0.219,2.059 0.657,2.672 0.445,0.606 1.086,0.906 1.922,0.906 z"
         style="fill:#000000;fill-opacity:1;fill-rule:nonzero;stroke:none;stroke-width:0.99975;stroke-miterlimit:4;stroke-dasharray:none"
         id="path194" /><path
         d="m 63.09,312.602 h 3.812 l 2.063,8.437 2.062,-8.437 h 3.266 l 2.062,8.359 2.063,-8.359 h 3.812 l -3.234,12.25 H 74.73 l -2.078,-8.422 -2.047,8.422 h -4.281 z"
         style="fill:#000000;fill-opacity:1;fill-rule:nonzero;stroke:none;stroke-width:0.99975;stroke-miterlimit:4;stroke-dasharray:none"
         id="path196" /><path
         d="m 90.359,319.336 c -0.812,0 -1.429,0.141 -1.843,0.422 -0.418,0.273 -0.625,0.68 -0.625,1.219 0,0.5 0.164,0.89 0.5,1.171 0.332,0.282 0.797,0.422 1.39,0.422 0.739,0 1.36,-0.265 1.86,-0.797 0.5,-0.531 0.75,-1.191 0.75,-1.984 v -0.453 z m 5.985,-1.469 v 6.985 h -3.953 v -1.813 c -0.524,0.742 -1.11,1.281 -1.766,1.625 -0.656,0.332 -1.461,0.5 -2.406,0.5 -1.262,0 -2.289,-0.367 -3.078,-1.109 -0.793,-0.739 -1.188,-1.696 -1.188,-2.875 0,-1.438 0.488,-2.489 1.469,-3.157 0.988,-0.675 2.539,-1.015 4.656,-1.015 h 2.313 v -0.313 c 0,-0.613 -0.246,-1.062 -0.735,-1.343 -0.492,-0.29 -1.25,-0.438 -2.281,-0.438 -0.844,0 -1.625,0.086 -2.344,0.25 -0.719,0.168 -1.39,0.418 -2.015,0.75 v -2.984 c 0.843,-0.207 1.687,-0.364 2.531,-0.469 0.844,-0.102 1.687,-0.156 2.531,-0.156 2.219,0 3.817,0.437 4.797,1.312 0.977,0.867 1.469,2.281 1.469,4.25 z"
         style="fill:#000000;fill-opacity:1;fill-rule:nonzero;stroke:none;stroke-width:0.99975;stroke-miterlimit:4;stroke-dasharray:none"
         id="path198" /><path
         d="m 109.066,315.93 c -0.343,-0.157 -0.687,-0.27 -1.031,-0.344 -0.336,-0.082 -0.672,-0.125 -1.015,-0.125 -1.012,0 -1.79,0.324 -2.329,0.969 -0.543,0.648 -0.812,1.574 -0.812,2.781 v 5.641 h -3.922 v -12.25 h 3.922 v 2.015 c 0.5,-0.801 1.078,-1.383 1.734,-1.75 0.657,-0.375 1.438,-0.562 2.344,-0.562 0.133,0 0.273,0.007 0.422,0.015 0.156,0.012 0.379,0.032 0.672,0.063 z"
         style="fill:#000000;fill-opacity:1;fill-rule:nonzero;stroke:none;stroke-width:0.99975;stroke-miterlimit:4;stroke-dasharray:none"
         id="path200" /><path
         d="m 123.301,318.695 v 1.11 h -9.156 c 0.093,0.918 0.425,1.609 1,2.078 0.57,0.461 1.367,0.687 2.39,0.687 0.82,0 1.664,-0.117 2.531,-0.359 0.864,-0.25 1.75,-0.625 2.657,-1.125 v 3.016 c -0.93,0.355 -1.856,0.621 -2.782,0.796 -0.929,0.176 -1.855,0.266 -2.781,0.266 -2.211,0 -3.93,-0.562 -5.156,-1.687 -1.231,-1.125 -1.844,-2.704 -1.844,-4.735 0,-2 0.598,-3.57 1.797,-4.719 1.207,-1.144 2.867,-1.718 4.984,-1.718 1.926,0 3.469,0.586 4.625,1.75 1.157,1.156 1.735,2.703 1.735,4.64 z m -4.016,-1.312 c 0,-0.738 -0.219,-1.332 -0.656,-1.781 -0.438,-0.457 -1.008,-0.688 -1.703,-0.688 -0.762,0 -1.383,0.215 -1.86,0.641 -0.468,0.418 -0.761,1.027 -0.875,1.828 z"
         style="fill:#000000;fill-opacity:1;fill-rule:nonzero;stroke:none;stroke-width:0.99975;stroke-miterlimit:4;stroke-dasharray:none"
         id="path202" /><path
         d="m 15.613,269.301 v 3.453 c -0.898,-0.406 -1.773,-0.707 -2.625,-0.906 -0.855,-0.207 -1.664,-0.313 -2.422,-0.313 -1,0 -1.746,0.141 -2.234,0.422 -0.48,0.273 -0.719,0.699 -0.719,1.281 0,0.438 0.16,0.782 0.485,1.032 0.332,0.242 0.925,0.449 1.781,0.625 l 1.781,0.359 c 1.82,0.367 3.113,0.922 3.875,1.672 0.77,0.742 1.156,1.797 1.156,3.172 0,1.804 -0.539,3.14 -1.609,4.015 -1.062,0.875 -2.695,1.313 -4.891,1.313 -1.043,0 -2.086,-0.102 -3.125,-0.297 -1.043,-0.195 -2.086,-0.488 -3.125,-0.875 v -3.547 c 1.039,0.555 2.047,0.969 3.016,1.25 0.977,0.281 1.922,0.422 2.828,0.422 0.914,0 1.617,-0.149 2.11,-0.453 0.488,-0.313 0.734,-0.75 0.734,-1.313 0,-0.508 -0.168,-0.906 -0.5,-1.187 -0.336,-0.281 -0.996,-0.531 -1.984,-0.75 l -1.625,-0.36 c -1.637,-0.343 -2.836,-0.894 -3.594,-1.656 -0.75,-0.769 -1.125,-1.805 -1.125,-3.109 0,-1.625 0.523,-2.875 1.578,-3.75 1.051,-0.875 2.562,-1.313 4.531,-1.313 0.895,0 1.817,0.071 2.766,0.203 0.945,0.137 1.926,0.34 2.937,0.61 z"
         style="fill:#000000;fill-opacity:1;fill-rule:nonzero;stroke:none;stroke-width:0.99975;stroke-miterlimit:4;stroke-dasharray:none"
         id="path204" /><path
         d="m 26.039,275.363 c -0.875,0 -1.543,0.313 -2,0.938 -0.449,0.625 -0.672,1.527 -0.672,2.703 0,1.168 0.223,2.062 0.672,2.687 0.457,0.625 1.125,0.938 2,0.938 0.852,0 1.504,-0.313 1.953,-0.938 0.446,-0.625 0.672,-1.519 0.672,-2.687 0,-1.176 -0.226,-2.078 -0.672,-2.703 -0.449,-0.625 -1.101,-0.938 -1.953,-0.938 z m 0,-2.797 c 2.102,0 3.75,0.571 4.938,1.704 1.187,1.136 1.781,2.714 1.781,4.734 0,2.012 -0.594,3.586 -1.781,4.719 -1.188,1.136 -2.836,1.703 -4.938,1.703 -2.117,0 -3.773,-0.567 -4.969,-1.703 -1.187,-1.133 -1.781,-2.707 -1.781,-4.719 0,-2.02 0.594,-3.598 1.781,-4.734 1.196,-1.133 2.852,-1.704 4.969,-1.704 z"
         style="fill:#000000;fill-opacity:1;fill-rule:nonzero;stroke:none;stroke-width:0.99975;stroke-miterlimit:4;stroke-dasharray:none"
         id="path206" /><path
         d="m 43.645,268.082 v 2.578 h -2.157 c -0.554,0 -0.937,0.106 -1.156,0.313 -0.219,0.199 -0.328,0.543 -0.328,1.031 v 0.859 h 3.344 v 2.797 h -3.344 v 9.453 h -3.922 v -9.453 h -1.953 v -2.797 h 1.953 v -0.859 c 0,-1.332 0.367,-2.316 1.109,-2.953 0.75,-0.645 1.907,-0.969 3.469,-0.969 z"
         style="fill:#000000;fill-opacity:1;fill-rule:nonzero;stroke:none;stroke-width:0.99975;stroke-miterlimit:4;stroke-dasharray:none"
         id="path208" /><path
         d="m 49.609,269.379 v 3.484 h 4.047 v 2.797 h -4.047 v 5.203 c 0,0.563 0.114,0.949 0.344,1.157 0.227,0.199 0.676,0.296 1.344,0.296 h 2.015 v 2.797 h -3.359 c -1.555,0 -2.652,-0.32 -3.297,-0.968 -0.636,-0.645 -0.953,-1.739 -0.953,-3.282 V 275.66 H 43.75 v -2.797 h 1.953 v -3.484 z"
         style="fill:#000000;fill-opacity:1;fill-rule:nonzero;stroke:none;stroke-width:0.99975;stroke-miterlimit:4;stroke-dasharray:none"
         id="path210" /><path
         d="m 54.941,272.863 h 3.813 l 2.062,8.438 2.063,-8.438 h 3.266 l 2.062,8.36 2.063,-8.36 h 3.812 l -3.234,12.25 h -4.266 l -2.078,-8.422 -2.047,8.422 h -4.281 z"
         style="fill:#000000;fill-opacity:1;fill-rule:nonzero;stroke:none;stroke-width:0.99975;stroke-miterlimit:4;stroke-dasharray:none"
         id="path212" /><path
         d="m 82.207,279.598 c -0.812,0 -1.43,0.14 -1.844,0.422 -0.418,0.273 -0.625,0.679 -0.625,1.218 0,0.5 0.164,0.891 0.5,1.172 0.332,0.281 0.797,0.422 1.391,0.422 0.738,0 1.359,-0.266 1.859,-0.797 0.5,-0.531 0.75,-1.191 0.75,-1.984 v -0.453 z m 5.984,-1.469 v 6.984 h -3.953 v -1.812 c -0.523,0.742 -1.109,1.281 -1.765,1.625 -0.657,0.332 -1.461,0.5 -2.407,0.5 -1.261,0 -2.289,-0.367 -3.078,-1.11 -0.793,-0.738 -1.187,-1.695 -1.187,-2.875 0,-1.437 0.488,-2.488 1.469,-3.156 0.988,-0.676 2.539,-1.015 4.656,-1.015 h 2.312 v -0.313 c 0,-0.613 -0.246,-1.062 -0.734,-1.344 -0.492,-0.289 -1.25,-0.437 -2.281,-0.437 -0.844,0 -1.625,0.086 -2.344,0.25 -0.719,0.168 -1.391,0.418 -2.016,0.75 v -2.985 c 0.844,-0.207 1.688,-0.363 2.532,-0.468 0.843,-0.102 1.687,-0.157 2.531,-0.157 2.219,0 3.816,0.438 4.797,1.313 0.976,0.867 1.468,2.281 1.468,4.25 z"
         style="fill:#000000;fill-opacity:1;fill-rule:nonzero;stroke:none;stroke-width:0.99975;stroke-miterlimit:4;stroke-dasharray:none"
         id="path214" /><path
         d="m 100.984,276.191 c -0.343,-0.156 -0.687,-0.269 -1.031,-0.343 -0.336,-0.082 -0.672,-0.125 -1.015,-0.125 -1.012,0 -1.79,0.324 -2.329,0.968 -0.543,0.649 -0.812,1.575 -0.812,2.782 v 5.64 h -3.922 v -12.25 h 3.922 v 2.016 c 0.5,-0.801 1.078,-1.383 1.734,-1.75 0.657,-0.375 1.438,-0.563 2.344,-0.563 0.133,0 0.273,0.008 0.422,0.016 0.156,0.012 0.379,0.031 0.672,0.063 z"
         style="fill:#000000;fill-opacity:1;fill-rule:nonzero;stroke:none;stroke-width:0.99975;stroke-miterlimit:4;stroke-dasharray:none"
         id="path216" /><path
         d="m 115.152,278.957 v 1.109 h -9.156 c 0.094,0.918 0.426,1.61 1,2.079 0.57,0.46 1.367,0.687 2.391,0.687 0.82,0 1.664,-0.117 2.531,-0.359 0.863,-0.25 1.75,-0.625 2.656,-1.125 v 3.015 c -0.929,0.356 -1.855,0.621 -2.781,0.797 -0.93,0.176 -1.855,0.266 -2.781,0.266 -2.211,0 -3.93,-0.563 -5.157,-1.688 -1.23,-1.125 -1.843,-2.703 -1.843,-4.734 0,-2 0.597,-3.57 1.797,-4.719 1.207,-1.144 2.867,-1.719 4.984,-1.719 1.926,0 3.469,0.586 4.625,1.75 1.156,1.157 1.734,2.704 1.734,4.641 z m -4.015,-1.312 c 0,-0.739 -0.219,-1.333 -0.657,-1.782 -0.437,-0.457 -1.007,-0.687 -1.703,-0.687 -0.761,0 -1.382,0.215 -1.859,0.64 -0.469,0.418 -0.762,1.028 -0.875,1.829 z"
         style="fill:#000000;fill-opacity:1;fill-rule:nonzero;stroke:none;stroke-width:0.99975;stroke-miterlimit:4;stroke-dasharray:none"
         id="path218" /><path
         d="m 146.91,16.254 c -0.781,0.398 -1.594,0.695 -2.437,0.891 -0.836,0.207 -1.703,0.312 -2.61,0.312 -2.718,0 -4.875,-0.758 -6.468,-2.281 -1.594,-1.52 -2.391,-3.582 -2.391,-6.188 0,-2.601 0.797,-4.664 2.391,-6.187 1.593,-1.52 3.75,-2.281 6.468,-2.281 0.907,0 1.774,0.105 2.61,0.312 0.843,0.199 1.656,0.496 2.437,0.891 v 3.39 c -0.781,-0.531 -1.555,-0.922 -2.312,-1.172 -0.762,-0.25 -1.559,-0.375 -2.391,-0.375 -1.512,0 -2.699,0.485 -3.562,1.454 -0.856,0.96 -1.282,2.281 -1.282,3.968 0,1.688 0.426,3.016 1.282,3.985 0.863,0.961 2.05,1.437 3.562,1.437 0.832,0 1.629,-0.125 2.391,-0.375 0.757,-0.25 1.531,-0.64 2.312,-1.172 z"
         style="fill:#000000;fill-opacity:1;fill-rule:nonzero;stroke:none;stroke-width:0.99975;stroke-miterlimit:4;stroke-dasharray:none"
         id="path220" /><path
         d="m 150.188,0.113 h 3.922 v 17.031 h -3.922 z"
         style="fill:#000000;fill-opacity:1;fill-rule:nonzero;stroke:none;stroke-width:0.99975;stroke-miterlimit:4;stroke-dasharray:none"
         id="path222" /><path
         d="m 157.852,4.895 h 3.921 v 12.25 h -3.921 z m 0,-4.782 h 3.921 v 3.203 h -3.921 z"
         style="fill:#000000;fill-opacity:1;fill-rule:nonzero;stroke:none;stroke-width:0.99975;stroke-miterlimit:4;stroke-dasharray:none"
         id="path224" /><path
         d="m 177.746,10.988 v 1.11 h -9.156 c 0.094,0.918 0.426,1.609 1,2.078 0.57,0.461 1.367,0.687 2.39,0.687 0.821,0 1.665,-0.117 2.532,-0.359 0.863,-0.25 1.75,-0.625 2.656,-1.125 v 3.016 c -0.93,0.355 -1.856,0.621 -2.781,0.796 -0.93,0.176 -1.856,0.266 -2.782,0.266 -2.21,0 -3.929,-0.562 -5.156,-1.687 -1.23,-1.125 -1.844,-2.704 -1.844,-4.735 0,-2 0.598,-3.57 1.797,-4.719 1.207,-1.144 2.868,-1.718 4.985,-1.718 1.925,0 3.468,0.586 4.625,1.75 1.156,1.156 1.734,2.703 1.734,4.64 z M 173.73,9.676 c 0,-0.738 -0.218,-1.332 -0.656,-1.781 -0.437,-0.457 -1.008,-0.688 -1.703,-0.688 -0.762,0 -1.383,0.215 -1.859,0.641 -0.469,0.418 -0.762,1.027 -0.875,1.828 z"
         style="fill:#000000;fill-opacity:1;fill-rule:nonzero;stroke:none;stroke-width:0.99975;stroke-miterlimit:4;stroke-dasharray:none"
         id="path226" /><path
         d="m 193.027,9.676 v 7.469 h -3.937 v -5.719 c 0,-1.051 -0.028,-1.774 -0.078,-2.172 -0.043,-0.406 -0.125,-0.703 -0.25,-0.891 -0.149,-0.258 -0.356,-0.457 -0.625,-0.593 -0.262,-0.145 -0.559,-0.219 -0.891,-0.219 -0.812,0 -1.453,0.32 -1.922,0.953 -0.469,0.625 -0.703,1.496 -0.703,2.609 v 6.032 h -3.922 V 4.895 h 3.922 v 1.796 c 0.594,-0.718 1.219,-1.242 1.875,-1.578 0.664,-0.343 1.399,-0.515 2.203,-0.515 1.414,0 2.489,0.437 3.219,1.312 0.738,0.867 1.109,2.121 1.109,3.766 z"
         style="fill:#000000;fill-opacity:1;fill-rule:nonzero;stroke:none;stroke-width:0.99975;stroke-miterlimit:4;stroke-dasharray:none"
         id="path228" /><path
         d="m 200.973,1.41 v 3.485 h 4.047 v 2.796 h -4.047 v 5.204 c 0,0.562 0.113,0.949 0.343,1.156 0.227,0.199 0.676,0.297 1.344,0.297 h 2.016 v 2.797 h -3.36 c -1.554,0 -2.652,-0.321 -3.296,-0.969 -0.637,-0.645 -0.954,-1.738 -0.954,-3.281 V 7.691 h -1.953 V 4.895 h 1.953 V 1.41 Z"
         style="fill:#000000;fill-opacity:1;fill-rule:nonzero;stroke:none;stroke-width:0.99975;stroke-miterlimit:4;stroke-dasharray:none"
         id="path230" /><path
         d="m 224.773,5.27 v 2.984 c -0.835,-0.352 -1.64,-0.613 -2.421,-0.781 -0.782,-0.176 -1.524,-0.266 -2.219,-0.266 -0.742,0 -1.293,0.094 -1.656,0.281 -0.368,0.18 -0.547,0.461 -0.547,0.844 0,0.313 0.132,0.559 0.406,0.734 0.281,0.168 0.773,0.289 1.484,0.36 l 0.688,0.109 c 2.008,0.25 3.359,0.668 4.047,1.25 0.695,0.586 1.047,1.5 1.047,2.75 0,1.305 -0.485,2.281 -1.454,2.938 -0.96,0.656 -2.398,0.984 -4.312,0.984 -0.805,0 -1.637,-0.062 -2.5,-0.187 -0.867,-0.125 -1.758,-0.317 -2.672,-0.579 v -2.968 c 0.781,0.375 1.582,0.664 2.406,0.859 0.821,0.188 1.657,0.281 2.5,0.281 0.758,0 1.332,-0.101 1.719,-0.312 0.395,-0.219 0.594,-0.535 0.594,-0.953 0,-0.344 -0.137,-0.598 -0.406,-0.766 -0.274,-0.176 -0.805,-0.312 -1.594,-0.406 l -0.688,-0.094 c -1.742,-0.219 -2.965,-0.625 -3.672,-1.219 -0.699,-0.593 -1.046,-1.488 -1.046,-2.687 0,-1.301 0.441,-2.266 1.328,-2.891 0.894,-0.625 2.265,-0.937 4.109,-0.937 0.719,0 1.473,0.058 2.266,0.172 0.789,0.105 1.656,0.273 2.593,0.5 z"
         style="fill:#000000;fill-opacity:1;fill-rule:nonzero;stroke:none;stroke-width:0.99975;stroke-miterlimit:4;stroke-dasharray:none"
         id="path232" /><path
         d="m 228.523,4.895 h 3.922 v 12.25 h -3.922 z m 0,-4.782 h 3.922 v 3.203 h -3.922 z"
         style="fill:#000000;fill-opacity:1;fill-rule:nonzero;stroke:none;stroke-width:0.99975;stroke-miterlimit:4;stroke-dasharray:none"
         id="path234" /><path
         d="M 244.527,6.691 V 0.113 h 3.938 v 17.032 h -3.938 v -1.766 c -0.543,0.719 -1.136,1.246 -1.781,1.578 -0.648,0.332 -1.398,0.5 -2.25,0.5 -1.512,0 -2.758,-0.598 -3.734,-1.797 -0.969,-1.195 -1.453,-2.738 -1.453,-4.625 0,-1.894 0.484,-3.441 1.453,-4.64 0.976,-1.196 2.222,-1.797 3.734,-1.797 0.844,0 1.586,0.172 2.234,0.515 0.657,0.336 1.254,0.86 1.797,1.578 z m -2.578,7.922 c 0.832,0 1.469,-0.301 1.906,-0.906 0.446,-0.613 0.672,-1.504 0.672,-2.672 0,-1.164 -0.226,-2.055 -0.672,-2.672 -0.437,-0.613 -1.074,-0.922 -1.906,-0.922 -0.836,0 -1.476,0.309 -1.922,0.922 -0.437,0.617 -0.656,1.508 -0.656,2.672 0,1.168 0.219,2.059 0.656,2.672 0.446,0.605 1.086,0.906 1.922,0.906 z"
         style="fill:#000000;fill-opacity:1;fill-rule:nonzero;stroke:none;stroke-width:0.99975;stroke-miterlimit:4;stroke-dasharray:none"
         id="path236" /><path
         d="m 264.434,10.988 v 1.11 h -9.157 c 0.094,0.918 0.426,1.609 1,2.078 0.571,0.461 1.368,0.687 2.391,0.687 0.82,0 1.664,-0.117 2.531,-0.359 0.863,-0.25 1.75,-0.625 2.656,-1.125 v 3.016 c -0.929,0.355 -1.855,0.621 -2.781,0.796 -0.929,0.176 -1.855,0.266 -2.781,0.266 -2.211,0 -3.93,-0.562 -5.156,-1.687 -1.231,-1.125 -1.844,-2.704 -1.844,-4.735 0,-2 0.598,-3.57 1.797,-4.719 1.207,-1.144 2.867,-1.718 4.984,-1.718 1.926,0 3.469,0.586 4.625,1.75 1.156,1.156 1.735,2.703 1.735,4.64 z m -4.016,-1.312 c 0,-0.738 -0.219,-1.332 -0.656,-1.781 -0.438,-0.457 -1.008,-0.688 -1.703,-0.688 -0.762,0 -1.383,0.215 -1.86,0.641 -0.469,0.418 -0.761,1.027 -0.875,1.828 z"
         style="fill:#000000;fill-opacity:1;fill-rule:nonzero;stroke:none;stroke-width:0.99975;stroke-miterlimit:4;stroke-dasharray:none"
         id="path238" /><path
         d="M 301.359,1.207 V 4.66 c -0.898,-0.406 -1.773,-0.707 -2.625,-0.906 -0.855,-0.207 -1.664,-0.313 -2.422,-0.313 -1,0 -1.746,0.141 -2.234,0.422 -0.48,0.274 -0.719,0.699 -0.719,1.282 0,0.437 0.161,0.781 0.485,1.031 0.332,0.242 0.926,0.449 1.781,0.625 l 1.781,0.359 c 1.821,0.367 3.114,0.922 3.875,1.672 0.77,0.742 1.157,1.797 1.157,3.172 0,1.805 -0.54,3.141 -1.61,4.016 -1.062,0.875 -2.695,1.312 -4.89,1.312 -1.043,0 -2.086,-0.102 -3.126,-0.297 -1.042,-0.195 -2.085,-0.488 -3.124,-0.875 v -3.547 c 1.039,0.555 2.046,0.969 3.015,1.25 0.977,0.282 1.922,0.422 2.828,0.422 0.914,0 1.617,-0.148 2.11,-0.453 0.488,-0.312 0.734,-0.75 0.734,-1.312 0,-0.508 -0.168,-0.907 -0.5,-1.188 -0.336,-0.281 -0.996,-0.531 -1.984,-0.75 l -1.625,-0.359 c -1.637,-0.344 -2.836,-0.895 -3.594,-1.657 -0.75,-0.769 -1.125,-1.804 -1.125,-3.109 0,-1.625 0.523,-2.875 1.578,-3.75 1.051,-0.875 2.563,-1.312 4.531,-1.312 0.895,0 1.817,0.07 2.766,0.203 0.945,0.136 1.926,0.34 2.937,0.609 z"
         style="fill:#000000;fill-opacity:1;fill-rule:nonzero;stroke:none;stroke-width:0.99975;stroke-miterlimit:4;stroke-dasharray:none"
         id="path240" /><path
         d="m 318.176,10.863 v 1.11 h -9.156 c 0.093,0.918 0.425,1.609 1,2.078 0.57,0.461 1.367,0.687 2.39,0.687 0.82,0 1.664,-0.117 2.531,-0.359 0.864,-0.25 1.75,-0.625 2.657,-1.125 v 3.016 c -0.93,0.355 -1.856,0.621 -2.782,0.796 -0.929,0.176 -1.855,0.266 -2.781,0.266 -2.211,0 -3.93,-0.562 -5.156,-1.687 -1.231,-1.125 -1.844,-2.704 -1.844,-4.735 0,-2 0.598,-3.57 1.797,-4.719 1.207,-1.144 2.867,-1.718 4.984,-1.718 1.926,0 3.469,0.586 4.625,1.75 1.157,1.156 1.735,2.703 1.735,4.64 z M 314.16,9.551 c 0,-0.739 -0.219,-1.332 -0.656,-1.781 -0.438,-0.458 -1.008,-0.688 -1.703,-0.688 -0.762,0 -1.383,0.215 -1.86,0.641 -0.468,0.418 -0.761,1.027 -0.875,1.828 z"
         style="fill:#000000;fill-opacity:1;fill-rule:nonzero;stroke:none;stroke-width:0.99975;stroke-miterlimit:4;stroke-dasharray:none"
         id="path242" /><path
         d="m 330.238,8.098 c -0.343,-0.157 -0.687,-0.27 -1.031,-0.344 -0.336,-0.082 -0.672,-0.125 -1.016,-0.125 -1.011,0 -1.789,0.324 -2.328,0.969 -0.543,0.648 -0.812,1.574 -0.812,2.781 v 5.641 h -3.922 V 4.77 h 3.922 v 2.015 c 0.5,-0.801 1.078,-1.383 1.734,-1.75 0.656,-0.375 1.438,-0.562 2.344,-0.562 0.133,0 0.273,0.007 0.422,0.015 0.156,0.012 0.379,0.032 0.672,0.063 z"
         style="fill:#000000;fill-opacity:1;fill-rule:nonzero;stroke:none;stroke-width:0.99975;stroke-miterlimit:4;stroke-dasharray:none"
         id="path244" /><path
         d="m 330.641,4.77 h 3.906 l 3.062,8.468 3.032,-8.468 h 3.937 l -4.828,12.25 h -4.297 z"
         style="fill:#000000;fill-opacity:1;fill-rule:nonzero;stroke:none;stroke-width:0.99975;stroke-miterlimit:4;stroke-dasharray:none"
         id="path246" /><path
         d="m 358.988,10.863 v 1.11 h -9.156 c 0.094,0.918 0.426,1.609 1,2.078 0.57,0.461 1.367,0.687 2.391,0.687 0.82,0 1.664,-0.117 2.531,-0.359 0.863,-0.25 1.75,-0.625 2.656,-1.125 v 3.016 c -0.93,0.355 -1.855,0.621 -2.781,0.796 -0.93,0.176 -1.856,0.266 -2.781,0.266 -2.211,0 -3.93,-0.562 -5.157,-1.687 -1.23,-1.125 -1.843,-2.704 -1.843,-4.735 0,-2 0.597,-3.57 1.797,-4.719 1.207,-1.144 2.867,-1.718 4.984,-1.718 1.926,0 3.469,0.586 4.625,1.75 1.156,1.156 1.734,2.703 1.734,4.64 z m -4.015,-1.312 c 0,-0.739 -0.219,-1.332 -0.657,-1.781 -0.437,-0.458 -1.007,-0.688 -1.703,-0.688 -0.761,0 -1.383,0.215 -1.859,0.641 -0.469,0.418 -0.762,1.027 -0.875,1.828 z"
         style="fill:#000000;fill-opacity:1;fill-rule:nonzero;stroke:none;stroke-width:0.99975;stroke-miterlimit:4;stroke-dasharray:none"
         id="path248" /><path
         d="m 371.051,8.098 c -0.344,-0.157 -0.688,-0.27 -1.031,-0.344 -0.336,-0.082 -0.672,-0.125 -1.016,-0.125 -1.012,0 -1.789,0.324 -2.328,0.969 -0.543,0.648 -0.813,1.574 -0.813,2.781 v 5.641 h -3.922 V 4.77 h 3.922 v 2.015 c 0.5,-0.801 1.078,-1.383 1.735,-1.75 0.656,-0.375 1.437,-0.562 2.343,-0.562 0.133,0 0.274,0.007 0.422,0.015 0.157,0.012 0.379,0.032 0.672,0.063 z"
         style="fill:#000000;fill-opacity:1;fill-rule:nonzero;stroke:none;stroke-width:0.99975;stroke-miterlimit:4;stroke-dasharray:none"
         id="path250" /><path
         d="m 390.359,5.145 v 2.984 c -0.836,-0.352 -1.64,-0.613 -2.421,-0.781 -0.782,-0.176 -1.524,-0.266 -2.219,-0.266 -0.742,0 -1.293,0.094 -1.657,0.281 -0.367,0.18 -0.546,0.461 -0.546,0.844 0,0.313 0.132,0.559 0.406,0.734 0.281,0.168 0.773,0.289 1.484,0.36 l 0.688,0.109 c 2.008,0.25 3.359,0.668 4.047,1.25 0.695,0.586 1.047,1.5 1.047,2.75 0,1.305 -0.485,2.281 -1.454,2.938 -0.961,0.656 -2.398,0.984 -4.312,0.984 -0.805,0 -1.637,-0.062 -2.5,-0.187 -0.867,-0.125 -1.758,-0.317 -2.672,-0.579 v -2.968 c 0.781,0.375 1.582,0.664 2.406,0.859 0.821,0.188 1.656,0.281 2.5,0.281 0.758,0 1.332,-0.101 1.719,-0.312 0.395,-0.219 0.594,-0.535 0.594,-0.953 0,-0.344 -0.137,-0.598 -0.407,-0.766 -0.273,-0.176 -0.804,-0.312 -1.593,-0.406 l -0.688,-0.094 c -1.742,-0.219 -2.965,-0.625 -3.672,-1.219 -0.699,-0.593 -1.047,-1.488 -1.047,-2.687 0,-1.301 0.442,-2.266 1.329,-2.891 0.894,-0.625 2.265,-0.937 4.109,-0.937 0.719,0 1.473,0.058 2.266,0.172 0.789,0.105 1.656,0.273 2.593,0.5 z"
         style="fill:#000000;fill-opacity:1;fill-rule:nonzero;stroke:none;stroke-width:0.99975;stroke-miterlimit:4;stroke-dasharray:none"
         id="path252" /><path
         d="m 394.109,4.77 h 3.922 v 12.25 h -3.922 z m 0,-4.782 h 3.922 v 3.203 h -3.922 z"
         style="fill:#000000;fill-opacity:1;fill-rule:nonzero;stroke:none;stroke-width:0.99975;stroke-miterlimit:4;stroke-dasharray:none"
         id="path254" /><path
         d="m 410.18,6.566 v -6.578 h 3.937 V 17.02 h -3.937 v -1.766 c -0.543,0.719 -1.137,1.246 -1.782,1.578 -0.648,0.332 -1.398,0.5 -2.25,0.5 -1.511,0 -2.757,-0.598 -3.734,-1.797 -0.969,-1.195 -1.453,-2.738 -1.453,-4.625 0,-1.894 0.484,-3.441 1.453,-4.64 0.977,-1.196 2.223,-1.797 3.734,-1.797 0.844,0 1.586,0.172 2.235,0.515 0.656,0.336 1.254,0.86 1.797,1.578 z m -2.578,7.922 c 0.832,0 1.468,-0.3 1.906,-0.906 0.445,-0.613 0.672,-1.504 0.672,-2.672 0,-1.164 -0.227,-2.055 -0.672,-2.672 -0.438,-0.613 -1.074,-0.922 -1.906,-0.922 -0.836,0 -1.477,0.309 -1.922,0.922 -0.438,0.617 -0.657,1.508 -0.657,2.672 0,1.168 0.219,2.059 0.657,2.672 0.445,0.606 1.086,0.906 1.922,0.906 z"
         style="fill:#000000;fill-opacity:1;fill-rule:nonzero;stroke:none;stroke-width:0.99975;stroke-miterlimit:4;stroke-dasharray:none"
         id="path256" /><path
         d="m 430.086,10.863 v 1.11 h -9.156 c 0.093,0.918 0.425,1.609 1,2.078 0.57,0.461 1.367,0.687 2.39,0.687 0.821,0 1.664,-0.117 2.532,-0.359 0.863,-0.25 1.75,-0.625 2.656,-1.125 v 3.016 c -0.93,0.355 -1.856,0.621 -2.781,0.796 -0.93,0.176 -1.856,0.266 -2.782,0.266 -2.211,0 -3.929,-0.562 -5.156,-1.687 -1.23,-1.125 -1.844,-2.704 -1.844,-4.735 0,-2 0.598,-3.57 1.797,-4.719 1.207,-1.144 2.867,-1.718 4.985,-1.718 1.925,0 3.468,0.586 4.625,1.75 1.156,1.156 1.734,2.703 1.734,4.64 z M 426.07,9.551 c 0,-0.739 -0.218,-1.332 -0.656,-1.781 -0.437,-0.458 -1.008,-0.688 -1.703,-0.688 -0.762,0 -1.383,0.215 -1.859,0.641 -0.469,0.418 -0.762,1.027 -0.875,1.828 z"
         style="fill:#000000;fill-opacity:1;fill-rule:nonzero;stroke:none;stroke-width:0.99975;stroke-miterlimit:4;stroke-dasharray:none"
         id="path258" /><g
         id="g260"
         style="stroke-width:0.99975;stroke-miterlimit:4;stroke-dasharray:none"><path
           d="m 548.27,246.477 -14.266,24.839 h 9.769 v 36.864 h -9.769 l 14.266,24.836 14.265,-24.836 h -9.769 v -36.864 h 9.769 z"
           style="fill:#cacaca;fill-opacity:1;fill-rule:nonzero;stroke:#000000;stroke-width:0.99975;stroke-linecap:butt;stroke-linejoin:miter;stroke-miterlimit:4;stroke-dasharray:none;stroke-opacity:1"
           id="path262" /></g><g
         id="g264"
         style="stroke-width:0.99975;stroke-miterlimit:4;stroke-dasharray:none"><path
           d="m 0.941,118.926 h 245.227 v 42.289 H 0.941 Z"
           style="fill:#ececec;fill-opacity:1;fill-rule:nonzero;stroke:#000000;stroke-width:0.99975;stroke-linecap:butt;stroke-linejoin:miter;stroke-miterlimit:4;stroke-dasharray:none;stroke-opacity:1"
           id="path266" /></g><path
         d="m 87.797,133.113 v 2.172 c -0.688,-0.644 -1.422,-1.125 -2.203,-1.437 -0.782,-0.321 -1.617,-0.485 -2.5,-0.485 -1.731,0 -3.059,0.532 -3.985,1.594 -0.918,1.055 -1.375,2.586 -1.375,4.594 0,2 0.457,3.531 1.375,4.594 0.926,1.054 2.254,1.578 3.985,1.578 0.883,0 1.718,-0.157 2.5,-0.469 0.781,-0.32 1.515,-0.805 2.203,-1.453 v 2.14 c -0.719,0.493 -1.481,0.86 -2.281,1.11 -0.805,0.238 -1.649,0.359 -2.532,0.359 -2.304,0 -4.117,-0.703 -5.437,-2.109 -1.313,-1.406 -1.969,-3.321 -1.969,-5.75 0,-2.438 0.656,-4.36 1.969,-5.766 1.32,-1.406 3.133,-2.109 5.437,-2.109 0.907,0 1.758,0.121 2.563,0.359 0.801,0.242 1.551,0.602 2.25,1.078 z"
         style="fill:#000000;fill-opacity:1;fill-rule:nonzero;stroke:none;stroke-width:0.99975;stroke-miterlimit:4;stroke-dasharray:none"
         id="path268" /><path
         d="m 90.738,131.957 h 2.063 v 9.203 c 0,1.625 0.289,2.797 0.875,3.516 0.594,0.711 1.547,1.062 2.859,1.062 1.32,0 2.274,-0.351 2.86,-1.062 0.593,-0.719 0.89,-1.891 0.89,-3.516 v -9.203 h 2.063 v 9.453 c 0,1.981 -0.493,3.477 -1.469,4.485 -0.981,1.011 -2.43,1.515 -4.344,1.515 -1.906,0 -3.351,-0.504 -4.328,-1.515 -0.98,-1.008 -1.469,-2.504 -1.469,-4.485 z"
         style="fill:#000000;fill-opacity:1;fill-rule:nonzero;stroke:none;stroke-width:0.99975;stroke-miterlimit:4;stroke-dasharray:none"
         id="path270" /><path
         d="m 108.227,133.645 v 11.781 h 2.468 c 2.094,0 3.625,-0.473 4.594,-1.422 0.977,-0.945 1.469,-2.442 1.469,-4.484 0,-2.032 -0.492,-3.516 -1.469,-4.454 -0.969,-0.945 -2.5,-1.421 -4.594,-1.421 z m -2.047,-1.688 h 4.203 c 2.937,0 5.094,0.609 6.469,1.828 1.375,1.219 2.062,3.133 2.062,5.735 0,2.617 -0.695,4.539 -2.078,5.765 -1.375,1.219 -3.527,1.828 -6.453,1.828 h -4.203 z"
         style="fill:#000000;fill-opacity:1;fill-rule:nonzero;stroke:none;stroke-width:0.99975;stroke-miterlimit:4;stroke-dasharray:none"
         id="path272" /><path
         d="m 126.902,133.973 -2.781,7.547 h 5.578 z m -1.156,-2.016 h 2.328 l 5.766,15.156 h -2.125 l -1.375,-3.89 h -6.844 l -1.375,3.89 h -2.172 z"
         style="fill:#000000;fill-opacity:1;fill-rule:nonzero;stroke:none;stroke-width:0.99975;stroke-miterlimit:4;stroke-dasharray:none"
         id="path274" /><path
         d="m 147.723,133.973 -2.782,7.547 h 5.579 z m -1.157,-2.016 h 2.329 l 5.765,15.156 h -2.125 l -1.375,-3.89 h -6.844 l -1.375,3.89 h -2.171 z"
         style="fill:#000000;fill-opacity:1;fill-rule:nonzero;stroke:none;stroke-width:0.99975;stroke-miterlimit:4;stroke-dasharray:none"
         id="path276" /><path
         d="m 158.934,133.645 v 5.687 h 2.578 c 0.957,0 1.695,-0.242 2.218,-0.734 0.52,-0.5 0.782,-1.203 0.782,-2.11 0,-0.914 -0.262,-1.617 -0.782,-2.109 -0.523,-0.488 -1.261,-0.734 -2.218,-0.734 z m -2.047,-1.688 h 4.625 c 1.695,0 2.976,0.387 3.843,1.156 0.875,0.762 1.313,1.887 1.313,3.375 0,1.492 -0.438,2.621 -1.313,3.391 -0.867,0.762 -2.148,1.141 -3.843,1.141 h -2.578 v 6.093 h -2.047 z"
         style="fill:#000000;fill-opacity:1;fill-rule:nonzero;stroke:none;stroke-width:0.99975;stroke-miterlimit:4;stroke-dasharray:none"
         id="path278" /><path
         d="m 169.43,131.957 h 2.047 v 15.156 h -2.047 z"
         style="fill:#000000;fill-opacity:1;fill-rule:nonzero;stroke:none;stroke-width:0.99975;stroke-miterlimit:4;stroke-dasharray:none"
         id="path280" /><g
         id="g282"
         style="stroke-width:0.99975;stroke-miterlimit:4;stroke-dasharray:none"><path
           d="m 123.395,86.207 -9.043,10.879 h 6.195 v 16.148 h -6.195 l 9.043,10.879 9.043,-10.879 h -6.192 V 97.086 h 6.192 z"
           style="fill:#cacaca;fill-opacity:1;fill-rule:nonzero;stroke:#000000;stroke-width:0.99975;stroke-linecap:butt;stroke-linejoin:miter;stroke-miterlimit:4;stroke-dasharray:none;stroke-opacity:1"
           id="path284" /></g><g
         id="g286"
         style="stroke-width:0.99975;stroke-miterlimit:4;stroke-dasharray:none"><path
           d="m 220.035,24.016 -31.207,8.082 31.207,8.066 v -5.535 h 44.094 v -5.078 h -44.094 z"
           style="fill:#e1e1e1;fill-opacity:1;fill-rule:nonzero;stroke:#9e9e9e;stroke-width:0.99975;stroke-linecap:butt;stroke-linejoin:miter;stroke-miterlimit:4;stroke-dasharray:none;stroke-opacity:1"
           id="path288" /></g><g
         id="g290"
         style="stroke-width:0.99975;stroke-miterlimit:4;stroke-dasharray:none"><path
           d="m 333.324,24.016 31.207,8.082 -31.207,8.066 V 34.629 H 289.23 v -5.078 h 44.094 z"
           style="fill:#e1e1e1;fill-opacity:1;fill-rule:nonzero;stroke:#9e9e9e;stroke-width:0.99975;stroke-linecap:butt;stroke-linejoin:miter;stroke-miterlimit:4;stroke-dasharray:none;stroke-opacity:1"
           id="path292" /></g><path
         d="m 182.973,348.75 c -2.172,-11.203 13.191,-20.414 34.304,-20.582 8.547,-0.074 17.145,1.387 24.414,4.133 8.348,-7.27 26.891,-9.055 41.418,-4 2.547,0.89 4.86,1.953 6.875,3.156 6.536,-6.039 21.594,-7.715 33.664,-3.723 3.329,1.094 6.211,2.567 8.418,4.305 10.246,-5.465 27.719,-5.113 39.028,0.77 4.75,2.484 7.863,5.679 8.777,9.054 16.016,3.328 24.996,12.699 20.067,20.91 -0.422,0.688 -0.93,1.36 -1.532,2 12.406,9.672 8.426,22.149 -8.875,27.879 -5.379,1.77 -11.672,2.746 -18.254,2.832 -0.75,9.5 -16.086,16.219 -34.246,15 -6.062,-0.41 -11.949,-1.687 -16.988,-3.703 -6.813,10.285 -28.625,14.953 -48.711,10.442 -8.43,-1.891 -15.59,-5.219 -20.281,-9.414 -21.199,5.253 -47.942,0.011 -59.735,-11.711 -0.156,-0.145 -0.3,-0.289 -0.445,-0.446 -13.648,-0.023 -25.648,-5.882 -26.793,-13.105 -0.601,-3.836 2.016,-7.488 7.188,-9.949 -11.551,-4.387 -15,-12.61 -7.707,-18.387 4.199,-3.328 11.324,-5.246 19.183,-5.184 z"
         style="fill:#ffffff;fill-opacity:1;fill-rule:evenodd;stroke:none;stroke-width:0.99975;stroke-miterlimit:4;stroke-dasharray:none"
         id="path294" /></g><g
       id="g296"
       style="stroke-width:0.99975;stroke-miterlimit:4;stroke-dasharray:none"
       transform="translate(0,-1.5)"><g
         id="g298"
         clip-path="url(#clipPath302)"
         style="stroke-width:0.99975;stroke-miterlimit:4;stroke-dasharray:none"
         inkscape:label="g298"
         transform="translate(0,-3)"><g
           id="g304"
           style="stroke-width:0.99975;stroke-miterlimit:4;stroke-dasharray:none"><g
             id="g306"
             style="stroke-width:0.99975;stroke-miterlimit:4;stroke-dasharray:none"><g
               id="g308"
               clip-path="url(#clipPath312)"
               style="stroke-width:0.99975;stroke-miterlimit:4;stroke-dasharray:none"><g
                 id="g314"
                 style="stroke-width:0.99975;stroke-miterlimit:4;stroke-dasharray:none"><g
                   id="g316"
                   style="stroke-width:0.99975;stroke-miterlimit:4;stroke-dasharray:none"><path
                     d="m 182.973,348.75 c -2.172,-11.203 13.191,-20.414 34.304,-20.582 8.547,-0.074 17.145,1.387 24.414,4.133 8.348,-7.27 26.891,-9.055 41.418,-4 2.547,0.89 4.86,1.953 6.875,3.156 6.536,-6.039 21.594,-7.715 33.664,-3.723 3.329,1.094 6.211,2.567 8.418,4.305 10.246,-5.465 27.719,-5.113 39.028,0.77 4.75,2.484 7.863,5.679 8.777,9.054 16.016,3.328 24.996,12.699 20.067,20.91 -0.422,0.688 -0.93,1.36 -1.532,2 12.406,9.672 8.426,22.149 -8.875,27.879 -5.379,1.77 -11.672,2.746 -18.254,2.832 -0.75,9.5 -16.086,16.219 -34.246,15 -6.062,-0.41 -11.949,-1.687 -16.988,-3.703 -6.813,10.285 -28.625,14.953 -48.711,10.442 -8.43,-1.891 -15.59,-5.219 -20.281,-9.414 -21.199,5.253 -47.942,0.011 -59.735,-11.711 -0.156,-0.145 -0.3,-0.289 -0.445,-0.446 -13.648,-0.023 -25.648,-5.882 -26.793,-13.105 -0.601,-3.836 2.016,-7.488 7.188,-9.949 -11.551,-4.387 -15,-12.61 -7.707,-18.387 4.199,-3.328 11.324,-5.246 19.183,-5.184 z"
                     style="fill:none;stroke:#000000;stroke-width:0.99975;stroke-linecap:butt;stroke-linejoin:round;stroke-miterlimit:4;stroke-dasharray:none;stroke-opacity:1"
                     id="path318" /></g></g></g></g></g><g
           id="g320"
           style="stroke-width:0.99975;stroke-miterlimit:4;stroke-dasharray:none"><path
             d="m 185.844,374.902 c -5.043,-0.121 -10.032,-1.039 -14.301,-2.664 m 25.789,22.571 c -2.035,0.289 -4.184,0.445 -6.352,0.433 m 60.082,12.18 c -1.449,-1.293 -2.64,-2.652 -3.558,-4.051 m 74.371,-1.016 c -0.313,1.411 -0.914,2.774 -1.785,4.09 m 33.558,-28.023 c 11.211,3.629 18.024,10.164 17.508,16.808 m 27.153,-30.699 c -1.989,2.149 -4.93,3.981 -8.598,5.344 m -9.777,-28.336 c 0.254,0.93 0.336,1.867 0.254,2.797 m -52.622,-9.356 c 1.161,-1.207 2.653,-2.304 4.438,-3.257 m -43.984,2.449 c 0.503,-1.027 1.253,-2.016 2.23,-2.918 m -48.582,1.023 c 2.629,0.989 5.043,2.149 7.199,3.426 m -64.808,16.242 c -0.52,-1.062 -0.879,-2.125 -1.086,-3.195"
             style="fill:none;stroke:#000000;stroke-width:0.99975;stroke-linecap:butt;stroke-linejoin:round;stroke-miterlimit:4;stroke-dasharray:none;stroke-opacity:1"
             id="path322" /></g><path
           d="m 220.582,354.344 h 6.719 l 8.484,16 v -16 h 5.703 v 23.328 h -6.718 l -8.485,-16 v 16 h -5.703 z"
           style="fill:#000000;fill-opacity:1;fill-rule:nonzero;stroke:none;stroke-width:0.99975;stroke-miterlimit:4;stroke-dasharray:none"
           id="path324" /><path
           d="m 264.555,368.875 v 1.594 h -13.078 c 0.132,1.312 0.609,2.297 1.421,2.953 0.813,0.656 1.946,0.984 3.407,0.984 1.175,0 2.379,-0.172 3.609,-0.515 1.238,-0.352 2.508,-0.883 3.813,-1.594 v 4.312 c -1.325,0.5 -2.649,0.875 -3.969,1.125 -1.324,0.258 -2.649,0.391 -3.969,0.391 -3.168,0 -5.633,-0.801 -7.391,-2.406 -1.75,-1.614 -2.625,-3.875 -2.625,-6.781 0,-2.852 0.86,-5.098 2.579,-6.735 1.726,-1.633 4.101,-2.453 7.125,-2.453 2.75,0 4.945,0.828 6.593,2.484 1.657,1.657 2.485,3.871 2.485,6.641 z m -5.75,-1.859 c 0,-1.063 -0.313,-1.914 -0.938,-2.563 -0.617,-0.656 -1.422,-0.984 -2.422,-0.984 -1.086,0 -1.965,0.308 -2.64,0.922 -0.68,0.605 -1.102,1.48 -1.266,2.625 z"
           style="fill:#000000;fill-opacity:1;fill-rule:nonzero;stroke:none;stroke-width:0.99975;stroke-miterlimit:4;stroke-dasharray:none"
           id="path326" /><path
           d="m 274.891,355.203 v 4.969 h 5.765 v 4 h -5.765 v 7.422 c 0,0.812 0.16,1.367 0.484,1.656 0.32,0.281 0.961,0.422 1.922,0.422 h 2.875 v 4 h -4.797 c -2.211,0 -3.777,-0.457 -4.703,-1.375 -0.918,-0.926 -1.375,-2.492 -1.375,-4.703 v -7.422 h -2.781 v -4 h 2.781 v -4.969 z"
           style="fill:#000000;fill-opacity:1;fill-rule:nonzero;stroke:none;stroke-width:0.99975;stroke-miterlimit:4;stroke-dasharray:none"
           id="path328" /><path
           d="m 282.516,360.172 h 5.437 l 2.938,12.062 2.953,-12.062 h 4.672 l 2.937,11.937 2.953,-11.937 h 5.438 l -4.61,17.5 h -6.109 l -2.953,-12.031 -2.938,12.031 h -6.109 z"
           style="fill:#000000;fill-opacity:1;fill-rule:nonzero;stroke:none;stroke-width:0.99975;stroke-miterlimit:4;stroke-dasharray:none"
           id="path330" /><path
           d="m 321.941,363.75 c -1.242,0 -2.187,0.449 -2.843,1.344 -0.649,0.886 -0.969,2.168 -0.969,3.844 0,1.679 0.32,2.964 0.969,3.859 0.656,0.887 1.601,1.328 2.843,1.328 1.219,0 2.149,-0.441 2.797,-1.328 0.645,-0.895 0.969,-2.18 0.969,-3.859 0,-1.676 -0.324,-2.958 -0.969,-3.844 -0.648,-0.895 -1.578,-1.344 -2.797,-1.344 z m 0,-4 c 3.008,0 5.36,0.812 7.047,2.438 1.696,1.624 2.547,3.874 2.547,6.75 0,2.874 -0.851,5.124 -2.547,6.75 -1.687,1.624 -4.039,2.437 -7.047,2.437 -3.023,0 -5.386,-0.813 -7.093,-2.437 -1.7,-1.626 -2.547,-3.876 -2.547,-6.75 0,-2.876 0.847,-5.126 2.547,-6.75 1.707,-1.626 4.07,-2.438 7.093,-2.438 z"
           style="fill:#000000;fill-opacity:1;fill-rule:nonzero;stroke:none;stroke-width:0.99975;stroke-miterlimit:4;stroke-dasharray:none"
           id="path332" /><path
           d="m 348.598,364.938 c -0.493,-0.227 -0.981,-0.395 -1.469,-0.5 -0.481,-0.114 -0.965,-0.172 -1.453,-0.172 -1.438,0 -2.547,0.464 -3.328,1.39 -0.774,0.918 -1.157,2.235 -1.157,3.953 v 8.063 h -5.593 v -17.5 h 5.593 v 2.875 c 0.719,-1.145 1.539,-1.977 2.469,-2.5 0.938,-0.531 2.055,-0.797 3.36,-0.797 0.187,0 0.39,0.012 0.609,0.031 0.219,0.012 0.535,0.043 0.953,0.094 z"
           style="fill:#000000;fill-opacity:1;fill-rule:nonzero;stroke:none;stroke-width:0.99975;stroke-miterlimit:4;stroke-dasharray:none"
           id="path334" /><path
           d="m 351.371,353.359 h 5.594 v 13.235 l 6.437,-6.422 h 6.5 l -8.547,8.031 9.219,9.469 h -6.781 l -6.828,-7.297 v 7.297 h -5.594 z"
           style="fill:#000000;fill-opacity:1;fill-rule:nonzero;stroke:none;stroke-width:0.99975;stroke-miterlimit:4;stroke-dasharray:none"
           id="path336" /></g></g><g
       id="g338"
       style="stroke-width:0.99975;stroke-miterlimit:4;stroke-dasharray:none"><g
         id="g340"
         style="stroke-width:0.99975;stroke-miterlimit:4;stroke-dasharray:none"><path
           d="m 202.891,246.477 -14.266,24.839 h 9.77 v 36.864 h -9.77 l 14.266,24.836 14.261,-24.836 h -9.765 v -36.864 h 9.765 z"
           style="fill:#cacaca;fill-opacity:1;fill-rule:nonzero;stroke:#000000;stroke-width:0.99975;stroke-linecap:butt;stroke-linejoin:miter;stroke-miterlimit:4;stroke-dasharray:none;stroke-opacity:1"
           id="path342" /></g><g
         id="g344"
         style="stroke-width:0.99975;stroke-miterlimit:4;stroke-dasharray:none"><path
           d="m 366.809,246.477 -14.262,24.839 h 9.769 v 36.864 h -9.769 l 14.262,24.836 14.265,-24.836 h -9.769 v -36.864 h 9.769 z"
           style="fill:#cacaca;fill-opacity:1;fill-rule:nonzero;stroke:#000000;stroke-width:0.99975;stroke-linecap:butt;stroke-linejoin:miter;stroke-miterlimit:4;stroke-dasharray:none;stroke-opacity:1"
           id="path346" /></g><path
         d="m 1.75,159.535 h 243.613 v 4.379 H 1.75 Z"
         style="fill:#ffffff;fill-opacity:1;fill-rule:nonzero;stroke:none;stroke-width:0.99975;stroke-miterlimit:4;stroke-dasharray:none"
         id="path348" /><g
         id="g350"
         style="stroke-width:0.99975;stroke-miterlimit:4;stroke-dasharray:none"><path
           d="M 0.238,159.957 H 245.754"
           style="fill:none;stroke:#000000;stroke-width:0.99975;stroke-linecap:butt;stroke-linejoin:miter;stroke-miterlimit:4;stroke-dasharray:none;stroke-dashoffset:0;stroke-opacity:1"
           id="path352" /></g></g></g></svg>
